<?xml version="1.0" encoding="utf-8"?>
<!-- Generator: Adobe Illustrator 18.1.1, SVG Export Plug-In . SVG Version: 6.00 Build 0)  -->
<svg version="1.1" id="Calque_1" xmlns="http://www.w3.org/2000/svg" xmlns:xlink="http://www.w3.org/1999/xlink" x="0px" y="0px"
	 viewBox="0 0 966.4 514.5" enable-background="new 0 0 966.4 514.5" xml:space="preserve">
<rect x="53.9" y="34.3" fill="#00616A" width="413.1" height="31"/>
<rect x="53.9" y="38.5" fill="#00616A" width="6.6" height="426.4"/>
<text transform="matrix(1 0 0 1 64.352 53.9603)" fill="#FFFFFF" font-family="'OpenSans-Light'" font-size="16.5316">EDUCATION</text>
<text transform="matrix(1 0 0 1 80.2514 97.5677)" fill="#652576" font-family="'OpenSans'" font-size="13.0594">Since 2013</text>
<text transform="matrix(1 0 0 1 164.7192 97.5677)"><tspan x="0" y="0" font-family="'OpenSans-Semibold'" font-size="13.0594">4</tspan><tspan x="7.3" y="0" font-family="'OpenSans-Semibold'" font-size="13.0594">t</tspan><tspan x="12.3" y="0" font-family="'OpenSans-Semibold'" font-size="13.0594">h</tspan><tspan x="20.5" y="0" font-family="'OpenSans-Semibold'" font-size="13.0594" letter-spacing="5"> </tspan><tspan x="29.7" y="0" font-family="'OpenSans-Semibold'" font-size="13.0594">year</tspan><tspan x="57" y="0" font-family="'OpenSans-Semibold'" font-size="13.0594" letter-spacing="5"> </tspan><tspan x="66.2" y="0" font-family="'OpenSans-Semibold'" font-size="13.0594">of</tspan><tspan x="78.7" y="0" font-family="'OpenSans-Semibold'" font-size="13.0594" letter-spacing="5"> </tspan><tspan x="87.9" y="0" font-family="'OpenSans-Semibold'" font-size="13.0594">I</tspan><tspan x="91.7" y="0" font-family="'OpenSans-Semibold'" font-size="13.0594">n</tspan><tspan x="99.9" y="0" font-family="'OpenSans-Semibold'" font-size="13.0594">d</tspan><tspan x="107.9" y="0" font-family="'OpenSans-Semibold'" font-size="13.0594">us</tspan><tspan x="122.3" y="0" font-family="'OpenSans-Semibold'" font-size="13.0594">tr</tspan><tspan x="132.8" y="0" font-family="'OpenSans-Semibold'" font-size="13.0594">i</tspan><tspan x="136.4" y="0" font-family="'OpenSans-Semibold'" font-size="13.0594">a</tspan><tspan x="143.8" y="0" font-family="'OpenSans-Semibold'" font-size="13.0594">l</tspan><tspan x="147.3" y="0" font-family="'OpenSans-Semibold'" font-size="13.0594" letter-spacing="5"> </tspan><tspan x="156.6" y="0" font-family="'OpenSans-Semibold'" font-size="13.0594">D</tspan><tspan x="166" y="0" font-family="'OpenSans-Semibold'" font-size="13.0594">e</tspan><tspan x="173.4" y="0" font-family="'OpenSans-Semibold'" font-size="13.0594">si</tspan><tspan x="183.2" y="0" font-family="'OpenSans-Semibold'" font-size="13.0594">g</tspan><tspan x="190.3" y="0" font-family="'OpenSans-Semibold'" font-size="13.0594">n</tspan><tspan x="198.5" y="0" font-family="'OpenSans-Semibold'" font-size="13.0594">,</tspan><tspan x="201.8" y="0" font-family="'OpenSans-Semibold'" font-size="13.0594" letter-spacing="5"> </tspan><tspan x="211.1" y="0" font-family="'OpenSans-Semibold'" font-size="13.0594">at</tspan><tspan x="223.5" y="0" font-family="'OpenSans-Semibold'" font-size="13.0594" letter-spacing="5"> </tspan><tspan x="232.8" y="0" font-family="'OpenSans-Semibold'" font-size="13.0594">S</tspan><tspan x="239.8" y="0" font-family="'OpenSans-Semibold'" font-size="13.0594">trate</tspan><tspan x="270.2" y="0" font-family="'OpenSans-Semibold'" font-size="13.0594">, </tspan></text>
<text transform="matrix(1 0 0 1 164.7192 114.1009)"><tspan x="0" y="0" font-family="'OpenSans-Semibold'" font-size="13.0594">S</tspan><tspan x="7.1" y="0" font-family="'OpenSans-Semibold'" font-size="13.0594">c</tspan><tspan x="13.4" y="0" font-family="'OpenSans-Semibold'" font-size="13.0594">hool of D</tspan><tspan x="69.3" y="0" font-family="'OpenSans-Semibold'" font-size="13.0594">e</tspan><tspan x="76.7" y="0" font-family="'OpenSans-Semibold'" font-size="13.0594">si</tspan><tspan x="86.5" y="0" font-family="'OpenSans-Semibold'" font-size="13.0594">g</tspan><tspan x="93.6" y="0" font-family="'OpenSans-Semibold'" font-size="13.0594">n</tspan><tspan x="101.8" y="0" font-family="'OpenSans-Semibold'" font-size="13.0594">,</tspan><tspan x="105.1" y="0" font-family="'OpenSans-Semibold'" font-size="13.0594"> S</tspan><tspan x="115.5" y="0" font-family="'OpenSans-Semibold'" font-size="13.0594">èvre</tspan><tspan x="142.6" y="0" font-family="'OpenSans-Semibold'" font-size="13.0594">s</tspan><tspan x="148.9" y="0" font-family="'OpenSans-Semibold'" font-size="13.0594">,</tspan><tspan x="152.2" y="0" font-family="'OpenSans-Semibold'" font-size="13.0594"> </tspan><tspan x="155.5" y="0" font-family="'OpenSans-Semibold'" font-size="13.0594">Fra</tspan><tspan x="175.2" y="0" font-family="'OpenSans-Semibold'" font-size="13.0594">n</tspan><tspan x="183.4" y="0" font-family="'OpenSans-Semibold'" font-size="13.0594">c</tspan><tspan x="189.8" y="0" font-family="'OpenSans-Semibold'" font-size="13.0594">e</tspan></text>
<text transform="matrix(1 0 0 1 125.9272 137.2835)" font-family="'OpenSans'" font-size="10.6849">Creativity: product design, interaction design, </text>
<text transform="matrix(1 0 0 1 125.9272 152.639)" font-family="'OpenSans'" font-size="10.6849">modelling, graphic design</text>
<text transform="matrix(1 0 0 1 125.9272 167.9925)" font-family="'OpenSans'" font-size="10.6849">Group work</text>
<text transform="matrix(1 0 0 1 125.9272 183.346)" font-family="'OpenSans'" font-size="10.6849">Methodology, ideation to prototyping</text>
<text transform="matrix(1 0 0 1 78.1264 315.222)" fill="#652576" font-family="'OpenSans'" font-size="13.0594">2010 - 2013 </text>
<text transform="matrix(1 0 0 1 152.2387 315.222)" fill="#18243F" font-family="'OpenSans'" font-size="13.0594"> </text>
<text transform="matrix(1 0 0 1 78.1264 215.3958)" fill="#652576" font-family="'OpenSans'" font-size="13.0594">2015 </text>
<text transform="matrix(1 0 0 1 111.3891 215.3958)" fill="#18243F" font-family="'OpenSans'" font-size="13.0594"> </text>
<text transform="matrix(1 0 0 1 164.1088 315.222)"><tspan x="0" y="0" font-family="'OpenSans-Semibold'" font-size="13.0594">Bac</tspan><tspan x="22.3" y="0" font-family="'OpenSans-Semibold'" font-size="13.0594">h</tspan><tspan x="30.4" y="0" font-family="'OpenSans-Semibold'" font-size="13.0594">e</tspan><tspan x="37.8" y="0" font-family="'OpenSans-Semibold'" font-size="13.0594">lo</tspan><tspan x="49.2" y="0" font-family="'OpenSans-Semibold'" font-size="13.0594">r</tspan><tspan x="54.7" y="0" font-family="'OpenSans-Semibold'" font-size="13.0594" letter-spacing="1"> </tspan><tspan x="59.1" y="0" font-family="'OpenSans-Semibold'" font-size="13.0594">in</tspan><tspan x="70.8" y="0" font-family="'OpenSans-Semibold'" font-size="13.0594" letter-spacing="1"> </tspan><tspan x="75.3" y="0" font-family="'OpenSans-Semibold'" font-size="13.0594">L</tspan><tspan x="82.2" y="0" font-family="'OpenSans-Semibold'" font-size="13.0594">a</tspan><tspan x="89.7" y="0" font-family="'OpenSans-Semibold'" font-size="13.0594">w</tspan><tspan x="100.2" y="0" font-family="'OpenSans-Semibold'" font-size="13.0594" letter-spacing="1"> </tspan><tspan x="104.6" y="0" font-family="'OpenSans-Semibold'" font-size="13.0594">a</tspan><tspan x="112.1" y="0" font-family="'OpenSans-Semibold'" font-size="13.0594">n</tspan><tspan x="120.3" y="0" font-family="'OpenSans-Semibold'" font-size="13.0594">d</tspan><tspan x="128.3" y="0" font-family="'OpenSans-Semibold'" font-size="13.0594" letter-spacing="1"> </tspan><tspan x="132.7" y="0" font-family="'OpenSans-Semibold'" font-size="13.0594">E</tspan><tspan x="139.8" y="0" font-family="'OpenSans-Semibold'" font-size="13.0594">n</tspan><tspan x="148" y="0" font-family="'OpenSans-Semibold'" font-size="13.0594">g</tspan><tspan x="155.2" y="0" font-family="'OpenSans-Semibold'" font-size="13.0594">lish</tspan><tspan x="176.6" y="0" font-family="'OpenSans-Semibold'" font-size="13.0594">,</tspan><tspan x="180" y="0" font-family="'OpenSans-Semibold'" font-size="13.0594" letter-spacing="1"> </tspan><tspan x="184.4" y="0" font-family="'OpenSans-Semibold'" font-size="13.0594">at</tspan><tspan x="196.8" y="0" font-family="'OpenSans-Semibold'" font-size="13.0594" letter-spacing="1"> </tspan><tspan x="201.3" y="0" font-family="'OpenSans-Semibold'" font-size="13.0594">t</tspan><tspan x="206.3" y="0" font-family="'OpenSans-Semibold'" font-size="13.0594">h</tspan><tspan x="214.4" y="0" font-family="'OpenSans-Semibold'" font-size="13.0594">e</tspan><tspan x="221.8" y="0" font-family="'OpenSans-Semibold'" font-size="13.0594" letter-spacing="1"> </tspan><tspan x="226.3" y="0" font-family="'OpenSans-Semibold'" font-size="13.0594">«FA</tspan><tspan x="248.7" y="0" font-family="'OpenSans-Semibold'" font-size="13.0594">C</tspan><tspan x="256.9" y="0" font-family="'OpenSans-Semibold'" font-size="13.0594">O</tspan><tspan x="267" y="0" font-family="'OpenSans-Semibold'" font-size="13.0594">» </tspan></text>
<text transform="matrix(1 0 0 1 164.1088 331.7552)"><tspan x="0" y="0" font-family="'OpenSans-Semibold'" font-size="13.0594">pr</tspan><tspan x="13.5" y="0" font-family="'OpenSans-Semibold'" font-size="13.0594">i</tspan><tspan x="17" y="0" font-family="'OpenSans-Semibold'" font-size="13.0594">vate</tspan><tspan x="43.7" y="0" font-family="'OpenSans-Semibold'" font-size="13.0594"> </tspan><tspan x="47" y="0" font-family="'OpenSans-Semibold'" font-size="13.0594">U</tspan><tspan x="56.6" y="0" font-family="'OpenSans-Semibold'" font-size="13.0594">ni</tspan><tspan x="68.3" y="0" font-family="'OpenSans-Semibold'" font-size="13.0594">ver</tspan><tspan x="88" y="0" font-family="'OpenSans-Semibold'" font-size="13.0594">si</tspan><tspan x="97.8" y="0" font-family="'OpenSans-Semibold'" font-size="13.0594">ty,</tspan><tspan x="113" y="0" font-family="'OpenSans-Semibold'" font-size="13.0594"> </tspan><tspan x="116.3" y="0" font-family="'OpenSans-Semibold'" font-size="13.0594">Par</tspan><tspan x="137.1" y="0" font-family="'OpenSans-Semibold'" font-size="13.0594">i</tspan><tspan x="140.7" y="0" font-family="'OpenSans-Semibold'" font-size="13.0594">s</tspan></text>
<text transform="matrix(1 0 0 1 164.1088 215.3958)"><tspan x="0" y="0" font-family="'OpenSans-Semibold'" font-size="13.0594">S</tspan><tspan x="7.1" y="0" font-family="'OpenSans-Semibold'" font-size="13.0594">eme</tspan><tspan x="34.2" y="0" font-family="'OpenSans-Semibold'" font-size="13.0594">s</tspan><tspan x="40.4" y="0" font-family="'OpenSans-Semibold'" font-size="13.0594">ter</tspan><tspan x="58.3" y="0" font-family="'OpenSans-Semibold'" font-size="13.0594" letter-spacing="2"> </tspan><tspan x="63.9" y="0" font-family="'OpenSans-Semibold'" font-size="13.0594">abr</tspan><tspan x="84.9" y="0" font-family="'OpenSans-Semibold'" font-size="13.0594">o</tspan><tspan x="92.7" y="0" font-family="'OpenSans-Semibold'" font-size="13.0594">ad</tspan><tspan x="108.2" y="0" font-family="'OpenSans-Semibold'" font-size="13.0594" letter-spacing="2"> </tspan><tspan x="113.8" y="0" font-family="'OpenSans-Semibold'" font-size="13.0594">in</tspan><tspan x="125.5" y="0" font-family="'OpenSans-Semibold'" font-size="13.0594" letter-spacing="2"> </tspan><tspan x="131" y="0" font-family="'OpenSans-Semibold'" font-size="13.0594">a</tspan><tspan x="138.5" y="0" font-family="'OpenSans-Semibold'" font-size="13.0594">n</tspan><tspan x="146.6" y="0" font-family="'OpenSans-Semibold'" font-size="13.0594" letter-spacing="2"> </tspan><tspan x="152.2" y="0" font-family="'OpenSans-Semibold'" font-size="13.0594">e</tspan><tspan x="159.6" y="0" font-family="'OpenSans-Semibold'" font-size="13.0594">x</tspan><tspan x="166.7" y="0" font-family="'OpenSans-Semibold'" font-size="13.0594">c</tspan><tspan x="173" y="0" font-family="'OpenSans-Semibold'" font-size="13.0594">h</tspan><tspan x="181.2" y="0" font-family="'OpenSans-Semibold'" font-size="13.0594">a</tspan><tspan x="188.6" y="0" font-family="'OpenSans-Semibold'" font-size="13.0594">n</tspan><tspan x="196.8" y="0" font-family="'OpenSans-Semibold'" font-size="13.0594">ge</tspan><tspan x="211.3" y="0" font-family="'OpenSans-Semibold'" font-size="13.0594" letter-spacing="2"> </tspan><tspan x="216.9" y="0" font-family="'OpenSans-Semibold'" font-size="13.0594">pr</tspan><tspan x="230.4" y="0" font-family="'OpenSans-Semibold'" font-size="13.0594">o</tspan><tspan x="238.3" y="0" font-family="'OpenSans-Semibold'" font-size="13.0594">gram</tspan><tspan x="270.7" y="0" font-family="'OpenSans-Semibold'" font-size="13.0594">, </tspan></text>
<text transform="matrix(1 0 0 1 164.1088 231.929)"><tspan x="0" y="0" font-family="'OpenSans-Semibold'" font-size="13.0594">at</tspan><tspan x="12.4" y="0" font-family="'OpenSans-Semibold'" font-size="13.0594"> </tspan><tspan x="15.7" y="0" font-family="'OpenSans-Semibold'" font-size="13.0594">t</tspan><tspan x="20.7" y="0" font-family="'OpenSans-Semibold'" font-size="13.0594">h</tspan><tspan x="28.9" y="0" font-family="'OpenSans-Semibold'" font-size="13.0594">e</tspan><tspan x="36.3" y="0" font-family="'OpenSans-Semibold'" font-size="13.0594"> </tspan><tspan x="39.6" y="0" font-family="'OpenSans-Semibold'" font-size="13.0594">U</tspan><tspan x="49.1" y="0" font-family="'OpenSans-Semibold'" font-size="13.0594">ni</tspan><tspan x="60.8" y="0" font-family="'OpenSans-Semibold'" font-size="13.0594">ver</tspan><tspan x="80.6" y="0" font-family="'OpenSans-Semibold'" font-size="13.0594">si</tspan><tspan x="90.3" y="0" font-family="'OpenSans-Semibold'" font-size="13.0594">ty</tspan><tspan x="102.2" y="0" font-family="'OpenSans-Semibold'" font-size="13.0594"> of Mon</tspan><tspan x="149.2" y="0" font-family="'OpenSans-Semibold'" font-size="13.0594">trea</tspan><tspan x="174.5" y="0" font-family="'OpenSans-Semibold'" font-size="13.0594">l</tspan><tspan x="178.1" y="0" font-family="'OpenSans-Semibold'" font-size="13.0594">,</tspan><tspan x="181.4" y="0" font-family="'OpenSans-Semibold'" font-size="13.0594"> C</tspan><tspan x="192.9" y="0" font-family="'OpenSans-Semibold'" font-size="13.0594">a</tspan><tspan x="200.3" y="0" font-family="'OpenSans-Semibold'" font-size="13.0594">n</tspan><tspan x="208.5" y="0" font-family="'OpenSans-Semibold'" font-size="13.0594">ad</tspan><tspan x="223.9" y="0" font-family="'OpenSans-Semibold'" font-size="13.0594">a</tspan></text>
<text transform="matrix(1 0 0 1 126.5219 354.7435)" font-family="'OpenSans'" font-size="10.6849">Intense personal work</text>
<text transform="matrix(1 0 0 1 126.5219 370.097)" font-family="'OpenSans'" font-size="10.6849">Capacity for synthesizing </text>
<text transform="matrix(1 0 0 1 126.5219 385.4525)" font-family="'OpenSans'" font-size="10.6849">Learning good organisation habits</text>
<text transform="matrix(1 0 0 1 126.5219 254.9241)" font-family="'OpenSans'" font-size="10.6849">Creative project management</text>
<text transform="matrix(1 0 0 1 126.5219 270.2787)" font-family="'OpenSans'" font-size="10.6849">Eco-conception</text>
<text transform="matrix(1 0 0 1 126.5219 285.6331)" font-family="'OpenSans'" font-size="10.6849">Recreational objects</text>
<text transform="matrix(1 0 0 1 78.1264 415.6927)" fill="#652576" font-family="'OpenSans'" font-size="13.0594">2010</text>
<text transform="matrix(1 0 0 1 163.9526 415.6927)"><tspan x="0" y="0" font-family="'OpenSans-Semibold'" font-size="13.0594">Bacca</tspan><tspan x="36.1" y="0" font-family="'OpenSans-Semibold'" font-size="13.0594">l</tspan><tspan x="39.6" y="0" font-family="'OpenSans-Semibold'" font-size="13.0594">a</tspan><tspan x="47" y="0" font-family="'OpenSans-Semibold'" font-size="13.0594">u</tspan><tspan x="55.2" y="0" font-family="'OpenSans-Semibold'" font-size="13.0594">réat</tspan><tspan x="80.5" y="0" font-family="'OpenSans-Semibold'" font-size="13.0594" letter-spacing="1"> </tspan><tspan x="85" y="0" font-family="'OpenSans-Semibold'" font-size="13.0594">in</tspan><tspan x="96.7" y="0" font-family="'OpenSans-Semibold'" font-size="13.0594" letter-spacing="1"> </tspan><tspan x="101.2" y="0" font-family="'OpenSans-Semibold'" font-size="13.0594">s</tspan><tspan x="107.5" y="0" font-family="'OpenSans-Semibold'" font-size="13.0594">c</tspan><tspan x="113.8" y="0" font-family="'OpenSans-Semibold'" font-size="13.0594">i</tspan><tspan x="117.3" y="0" font-family="'OpenSans-Semibold'" font-size="13.0594">e</tspan><tspan x="124.7" y="0" font-family="'OpenSans-Semibold'" font-size="13.0594">n</tspan><tspan x="132.9" y="0" font-family="'OpenSans-Semibold'" font-size="13.0594">ce</tspan><tspan x="146.6" y="0" font-family="'OpenSans-Semibold'" font-size="13.0594" letter-spacing="1"> </tspan><tspan x="151.1" y="0" font-family="'OpenSans-Semibold'" font-size="13.0594">wi</tspan><tspan x="165.2" y="0" font-family="'OpenSans-Semibold'" font-size="13.0594">t</tspan><tspan x="170.2" y="0" font-family="'OpenSans-Semibold'" font-size="13.0594">h</tspan><tspan x="178.4" y="0" font-family="'OpenSans-Semibold'" font-size="13.0594" letter-spacing="1"> </tspan><tspan x="182.9" y="0" font-family="'OpenSans-Semibold'" font-size="13.0594">honou</tspan><tspan x="223.1" y="0" font-family="'OpenSans-Semibold'" font-size="13.0594">r</tspan><tspan x="228.6" y="0" font-family="'OpenSans-Semibold'" font-size="13.0594">s</tspan><tspan x="234.9" y="0" font-family="'OpenSans-Semibold'" font-size="13.0594" letter-spacing="1"> </tspan><tspan x="239.4" y="0" font-family="'OpenSans-Semibold'" font-size="13.0594">L</tspan><tspan x="246.3" y="0" font-family="'OpenSans-Semibold'" font-size="13.0594">ycé</tspan><tspan x="266.9" y="0" font-family="'OpenSans-Semibold'" font-size="13.0594">e </tspan></text>
<text transform="matrix(1 0 0 1 163.9526 432.2249)"><tspan x="0" y="0" font-family="'OpenSans-Semibold'" font-size="13.0594">S</tspan><tspan x="7.1" y="0" font-family="'OpenSans-Semibold'" font-size="13.0594">a</tspan><tspan x="14.5" y="0" font-family="'OpenSans-Semibold'" font-size="13.0594">in</tspan><tspan x="26.2" y="0" font-family="'OpenSans-Semibold'" font-size="13.0594">te</tspan><tspan x="38.6" y="0" font-family="'OpenSans-Semibold'" font-size="13.0594">-C</tspan><tspan x="50.8" y="0" font-family="'OpenSans-Semibold'" font-size="13.0594">r</tspan><tspan x="56.3" y="0" font-family="'OpenSans-Semibold'" font-size="13.0594">oix</tspan><tspan x="74.8" y="0" font-family="'OpenSans-Semibold'" font-size="13.0594">,</tspan><tspan x="78.2" y="0" font-family="'OpenSans-Semibold'" font-size="13.0594"> </tspan><tspan x="81.4" y="0" font-family="'OpenSans-Semibold'" font-size="13.0594">Ne</tspan><tspan x="98.9" y="0" font-family="'OpenSans-Semibold'" font-size="13.0594">uill</tspan><tspan x="117.7" y="0" font-family="'OpenSans-Semibold'" font-size="13.0594">y</tspan><tspan x="124.5" y="0" font-family="'OpenSans-Semibold'" font-size="13.0594">-su</tspan><tspan x="143" y="0" font-family="'OpenSans-Semibold'" font-size="13.0594">r</tspan><tspan x="148.5" y="0" font-family="'OpenSans-Semibold'" font-size="13.0594">-S</tspan><tspan x="159.7" y="0" font-family="'OpenSans-Semibold'" font-size="13.0594">e</tspan><tspan x="167.1" y="0" font-family="'OpenSans-Semibold'" font-size="13.0594">in</tspan><tspan x="178.8" y="0" font-family="'OpenSans-Semibold'" font-size="13.0594">e</tspan></text>
<rect x="927.3" y="50.5" fill="#009275" width="7" height="237.9"/>
<rect x="927.3" y="297.8" fill="#43B285" width="7" height="167.1"/>
<rect x="521.4" y="34.3" fill="#009275" width="413.1" height="31"/>
<rect x="521.3" y="269.9" fill="#43B285" width="413.1" height="31"/>
<text transform="matrix(1 0 0 1 530.3061 53.9603)" fill="#FFFFFF" font-family="'OpenSans-Light'" font-size="16.5316">SKILLS</text>
<text transform="matrix(1 0 0 1 548.2543 91.9505)" font-family="'OpenSans-Semibold'" font-size="13.0594">Languages: </text>
<text transform="matrix(1 0 0 1 548.2543 110.8441)" font-family="'OpenSans'" font-size="11.8721">French </text>
<text transform="matrix(1 0 0 1 548.2543 129.7327)" font-family="'OpenSans'" font-size="11.8721">Spanish</text>
<text transform="matrix(1 0 0 1 530.3061 290.4085)" fill="#FFFFFF" font-family="'OpenSans-Light'" font-size="16.5316">INTERESTS</text>
<text transform="matrix(1 0 0 1 548.2748 327.224)"><tspan x="0" y="0" font-family="'OpenSans-Semibold'" font-size="13.0594">Ne</tspan><tspan x="17.5" y="0" font-family="'OpenSans-Semibold'" font-size="13.0594">w </tspan><tspan x="31.3" y="0" font-family="'OpenSans-Semibold'" font-size="13.0594">tec</tspan><tspan x="50" y="0" font-family="'OpenSans-Semibold'" font-size="13.0594">hnolo</tspan><tspan x="85.6" y="0" font-family="'OpenSans-Semibold'" font-size="13.0594">g</tspan><tspan x="92.8" y="0" font-family="'OpenSans-Semibold'" font-size="13.0594">i</tspan><tspan x="96.3" y="0" font-family="'OpenSans-Semibold'" font-size="13.0594">e</tspan><tspan x="103.7" y="0" font-family="'OpenSans-Semibold'" font-size="13.0594">s</tspan></text>
<text transform="matrix(1 0 0 1 548.2748 346.2259)"><tspan x="0" y="0" font-family="'OpenSans-Semibold'" font-size="13.0594">B</tspan><tspan x="8.5" y="0" font-family="'OpenSans-Semibold'" font-size="13.0594">iolo</tspan><tspan x="31.3" y="0" font-family="'OpenSans-Semibold'" font-size="13.0594">g</tspan><tspan x="38.4" y="0" font-family="'OpenSans-Semibold'" font-size="13.0594">y</tspan></text>
<text transform="matrix(1 0 0 1 548.2748 365.2279)"><tspan x="0" y="0" font-family="'OpenSans-Semibold'" font-size="13.0594">Cookin</tspan><tspan x="42.9" y="0" font-family="'OpenSans-Semibold'" font-size="13.0594">g </tspan></text>
<text transform="matrix(1 0 0 1 548.2748 384.2289)"><tspan x="0" y="0" font-family="'OpenSans-Semibold'" font-size="13.0594">T</tspan><tspan x="7.3" y="0" font-family="'OpenSans-Semibold'" font-size="13.0594">rave</tspan><tspan x="34.5" y="0" font-family="'OpenSans-Semibold'" font-size="13.0594">ls</tspan><tspan x="44.2" y="0" font-family="'OpenSans-Semibold'" font-size="13.0594">:</tspan></text>
<text transform="matrix(1 0 0 1 595.9286 384.2103)"><tspan x="0" y="0" font-family="'OpenSans'" font-size="11.8721" letter-spacing="4"> </tspan><tspan x="7.4" y="0" font-family="'OpenSans'" font-size="11.8721">China,</tspan><tspan x="42" y="0" font-family="'OpenSans'" font-size="11.8721" letter-spacing="4"> </tspan><tspan x="49.4" y="0" font-family="'OpenSans'" font-size="11.8721">United-Kingdom,</tspan><tspan x="142.8" y="0" font-family="'OpenSans'" font-size="11.8721" letter-spacing="4"> </tspan><tspan x="150.2" y="0" font-family="'OpenSans'" font-size="11.8721">United</tspan><tspan x="187.2" y="0" font-family="'OpenSans'" font-size="11.8721" letter-spacing="4"> </tspan><tspan x="194.6" y="0" font-family="'OpenSans'" font-size="11.8721">States,</tspan><tspan x="231.4" y="0" font-family="'OpenSans'" font-size="11.8721" letter-spacing="4"> </tspan><tspan x="238.8" y="0" font-family="'OpenSans'" font-size="11.8721">Canada, </tspan></text>
<text transform="matrix(1 0 0 1 548.2729 403.099)" font-family="'OpenSans'" font-size="11.8721">Sweden, Denmark, Oman, Italy, Germany...</text>
<g>
	<defs>
		<rect id="SVGID_1_" x="53.7" y="33" width="880.8" height="431.9"/>
	</defs>
	<clipPath id="SVGID_2_">
		<use xlink:href="#SVGID_1_"  overflow="visible"/>
	</clipPath>
	<path clip-path="url(#SVGID_2_)" fill="#00616A" d="M634.6,112.1c1.8,0,3.3-1.5,3.3-3.3c0-1.8-1.5-3.3-3.3-3.3s-3.3,1.5-3.3,3.3
		C631.3,110.6,632.8,112.1,634.6,112.1"/>
	<path clip-path="url(#SVGID_2_)" fill="#00616A" d="M790.5,112.1c1.8,0,3.3-1.5,3.3-3.3c0-1.8-1.5-3.3-3.3-3.3s-3.3,1.5-3.3,3.3
		C787.2,110.6,788.7,112.1,790.5,112.1"/>
	<path clip-path="url(#SVGID_2_)" fill="#00616A" d="M645.8,112.1c1.8,0,3.3-1.5,3.3-3.3c0-1.8-1.5-3.3-3.3-3.3
		c-1.8,0-3.3,1.5-3.3,3.3C642.4,110.6,643.9,112.1,645.8,112.1"/>
	<path clip-path="url(#SVGID_2_)" fill="#00616A" d="M801.7,112.1c1.8,0,3.3-1.5,3.3-3.3c0-1.8-1.5-3.3-3.3-3.3
		c-1.8,0-3.3,1.5-3.3,3.3C798.4,110.6,799.8,112.1,801.7,112.1"/>
	<path clip-path="url(#SVGID_2_)" fill="#00616A" d="M656.9,112.1c1.8,0,3.3-1.5,3.3-3.3c0-1.8-1.5-3.3-3.3-3.3
		c-1.8,0-3.3,1.5-3.3,3.3C653.6,110.6,655.1,112.1,656.9,112.1"/>
	<path clip-path="url(#SVGID_2_)" fill="#00616A" d="M812.8,112.1c1.8,0,3.3-1.5,3.3-3.3c0-1.8-1.5-3.3-3.3-3.3
		c-1.8,0-3.3,1.5-3.3,3.3C809.5,110.6,811,112.1,812.8,112.1"/>
	<path clip-path="url(#SVGID_2_)" fill="#00616A" d="M668.1,112.1c1.8,0,3.3-1.5,3.3-3.3c0-1.8-1.5-3.3-3.3-3.3
		c-1.8,0-3.3,1.5-3.3,3.3C664.7,110.6,666.2,112.1,668.1,112.1"/>
	<path clip-path="url(#SVGID_2_)" fill="#00616A" d="M824,112.1c1.8,0,3.3-1.5,3.3-3.3c0-1.8-1.5-3.3-3.3-3.3
		c-1.8,0-3.3,1.5-3.3,3.3C820.7,110.6,822.1,112.1,824,112.1"/>
	<path clip-path="url(#SVGID_2_)" fill="#00616A" d="M679.2,112.1c1.8,0,3.3-1.5,3.3-3.3c0-1.8-1.5-3.3-3.3-3.3
		c-1.8,0-3.3,1.5-3.3,3.3C675.9,110.6,677.4,112.1,679.2,112.1"/>
	<path clip-path="url(#SVGID_2_)" fill="#00616A" d="M835.1,112.1c1.8,0,3.3-1.5,3.3-3.3c0-1.8-1.5-3.3-3.3-3.3
		c-1.8,0-3.3,1.5-3.3,3.3C831.8,110.6,833.3,112.1,835.1,112.1"/>
</g>
<text transform="matrix(1 0 0 1 708.4111 110.6868)" font-family="'OpenSans'" font-size="11.8721">English</text>
<g>
	<defs>
		<rect id="SVGID_3_" x="53.7" y="33" width="880.8" height="431.9"/>
	</defs>
	<clipPath id="SVGID_4_">
		<use xlink:href="#SVGID_3_"  overflow="visible"/>
	</clipPath>
	<path clip-path="url(#SVGID_4_)" fill="#00616A" d="M634.8,131.5c1.8,0,3.3-1.5,3.3-3.3c0-1.8-1.5-3.3-3.3-3.3s-3.3,1.5-3.3,3.3
		C631.5,130,633,131.5,634.8,131.5"/>
	<path clip-path="url(#SVGID_4_)" fill="#00616A" d="M646,131.5c1.8,0,3.3-1.5,3.3-3.3c0-1.8-1.5-3.3-3.3-3.3
		c-1.8,0-3.3,1.5-3.3,3.3C642.7,130,644.2,131.5,646,131.5"/>
	<circle clip-path="url(#SVGID_4_)" fill="none" stroke="#00616A" stroke-width="0.75" cx="657.1" cy="128.2" r="3.3"/>
	<circle clip-path="url(#SVGID_4_)" fill="none" stroke="#00616A" stroke-width="0.75" cx="668.3" cy="128.2" r="3.3"/>
	<circle clip-path="url(#SVGID_4_)" fill="none" stroke="#00616A" stroke-width="0.75" cx="679.4" cy="128.2" r="3.3"/>
</g>
<text transform="matrix(1 0 0 1 548.3412 165.5911)" font-family="'OpenSans-Semibold'" font-size="13.0594">Software: </text>
<text transform="matrix(1 0 0 1 548.3412 184.4847)" font-family="'OpenSans'" font-size="11.8721">Photoshop</text>
<text transform="matrix(1 0 0 1 548.3412 203.3734)" font-family="'OpenSans'" font-size="11.8721">Indesign </text>
<text transform="matrix(1 0 0 1 548.3412 222.262)" font-family="'OpenSans'" font-size="11.8721">Illustrator </text>
<text transform="matrix(1 0 0 1 548.3412 241.1497)"><tspan x="0" y="0" font-family="'OpenSans'" font-size="11.8721">Prem</tspan><tspan x="28.3" y="0" font-family="'OpenSans'" font-size="11.8721">i</tspan><tspan x="30.9" y="0" font-family="'OpenSans'" font-size="11.8721">ere</tspan><tspan x="48" y="0" font-family="'OpenSans'" font-size="11.8721"> </tspan><tspan x="50.8" y="0" font-family="'OpenSans'" font-size="11.8721">Pr</tspan><tspan x="62.1" y="0" font-family="'OpenSans'" font-size="11.8721">o</tspan></text>
<text transform="matrix(1 0 0 1 708.497 184.4124)" font-family="'OpenSans'" font-size="11.8721">Solidworks</text>
<text transform="matrix(1 0 0 1 708.497 203.3011)" font-family="'OpenSans'" font-size="11.8721">3DS Max</text>
<text transform="matrix(1 0 0 1 708.497 222.1908)" font-family="'OpenSans'" font-size="11.8721">HTML/CSS</text>
<text transform="matrix(1 0 0 1 708.497 241.0794)" font-family="'OpenSans'" font-size="11.8721">Processing/</text>
<text transform="matrix(1 0 0 1 708.497 252.9515)" font-family="'OpenSans'" font-size="11.8721">Arduinio</text>
<g>
	<defs>
		<rect id="SVGID_5_" x="53.7" y="33" width="880.8" height="431.9"/>
	</defs>
	<clipPath id="SVGID_6_">
		<use xlink:href="#SVGID_5_"  overflow="visible"/>
	</clipPath>
	<path clip-path="url(#SVGID_6_)" fill="#00616A" d="M634.9,183.5c1.8,0,3.3-1.5,3.3-3.3c0-1.8-1.5-3.3-3.3-3.3s-3.3,1.5-3.3,3.3
		C631.6,182,633.1,183.5,634.9,183.5"/>
	<path clip-path="url(#SVGID_6_)" fill="#00616A" d="M634.9,202.6c1.8,0,3.3-1.5,3.3-3.3c0-1.8-1.5-3.3-3.3-3.3s-3.3,1.5-3.3,3.3
		C631.6,201.1,633.1,202.6,634.9,202.6"/>
	<path clip-path="url(#SVGID_6_)" fill="#00616A" d="M790.8,184.3c1.8,0,3.3-1.5,3.3-3.3c0-1.8-1.5-3.3-3.3-3.3
		c-1.8,0-3.3,1.5-3.3,3.3C787.5,182.8,789,184.3,790.8,184.3"/>
	<path clip-path="url(#SVGID_6_)" fill="#00616A" d="M634.7,222.6c1.8,0,3.3-1.5,3.3-3.3c0-1.8-1.5-3.3-3.3-3.3
		c-1.8,0-3.3,1.5-3.3,3.3C631.4,221.1,632.9,222.6,634.7,222.6"/>
	<path clip-path="url(#SVGID_6_)" fill="#00616A" d="M790.6,202.6c1.8,0,3.3-1.5,3.3-3.3c0-1.8-1.5-3.3-3.3-3.3
		c-1.8,0-3.3,1.5-3.3,3.3C787.3,201.1,788.8,202.6,790.6,202.6"/>
	<path clip-path="url(#SVGID_6_)" fill="#00616A" d="M790.6,241.4c1.8,0,3.3-1.5,3.3-3.3c0-1.8-1.5-3.3-3.3-3.3
		c-1.8,0-3.3,1.5-3.3,3.3C787.3,239.9,788.8,241.4,790.6,241.4"/>
	<path clip-path="url(#SVGID_6_)" fill="#00616A" d="M634.7,241.8c1.8,0,3.3-1.5,3.3-3.3c0-1.8-1.5-3.3-3.3-3.3
		c-1.8,0-3.3,1.5-3.3,3.3C631.4,240.3,632.9,241.8,634.7,241.8"/>
	<path clip-path="url(#SVGID_6_)" fill="#00616A" d="M790.9,221.8c1.8,0.1,3.4-1.4,3.4-3.2c0.1-1.8-1.4-3.4-3.2-3.4
		c-1.8-0.1-3.4,1.4-3.4,3.2C787.6,220.2,789,221.8,790.9,221.8"/>
	<path clip-path="url(#SVGID_6_)" fill="#00616A" d="M646.1,183.5c1.8,0,3.3-1.5,3.3-3.3c0-1.8-1.5-3.3-3.3-3.3s-3.3,1.5-3.3,3.3
		C642.8,182,644.2,183.5,646.1,183.5"/>
	<path clip-path="url(#SVGID_6_)" fill="#00616A" d="M646.1,202.6c1.8,0,3.3-1.5,3.3-3.3c0-1.8-1.5-3.3-3.3-3.3s-3.3,1.5-3.3,3.3
		C642.8,201.1,644.2,202.6,646.1,202.6"/>
	<path clip-path="url(#SVGID_6_)" fill="#00616A" d="M802,184.3c1.8,0,3.3-1.5,3.3-3.3c0-1.8-1.5-3.3-3.3-3.3
		c-1.8,0-3.3,1.5-3.3,3.3C798.7,182.8,800.2,184.3,802,184.3"/>
	<path clip-path="url(#SVGID_6_)" fill="#00616A" d="M645.9,222.6c1.8,0,3.3-1.5,3.3-3.3c0-1.8-1.5-3.3-3.3-3.3
		c-1.8,0-3.3,1.5-3.3,3.3C642.5,221.1,644,222.6,645.9,222.6"/>
	<path clip-path="url(#SVGID_6_)" fill="#00616A" d="M801.8,202.6c1.8,0,3.3-1.5,3.3-3.3c0-1.8-1.5-3.3-3.3-3.3
		c-1.8,0-3.3,1.5-3.3,3.3C798.4,201.1,799.9,202.6,801.8,202.6"/>
	<path clip-path="url(#SVGID_6_)" fill="#00616A" d="M801.8,241.4c1.8,0,3.3-1.5,3.3-3.3c0-1.8-1.5-3.3-3.3-3.3
		c-1.8,0-3.3,1.5-3.3,3.3C798.4,239.9,799.9,241.4,801.8,241.4"/>
	<path clip-path="url(#SVGID_6_)" fill="#00616A" d="M645.9,241.8c1.8,0,3.3-1.5,3.3-3.3c0-1.8-1.5-3.3-3.3-3.3
		c-1.8,0-3.3,1.5-3.3,3.3C642.5,240.3,644,241.8,645.9,241.8"/>
	<path clip-path="url(#SVGID_6_)" fill="#00616A" d="M801.8,222.6c1.8,0,3.3-1.5,3.3-3.3c0-1.8-1.5-3.3-3.3-3.3
		c-1.8,0-3.3,1.5-3.3,3.3C798.4,221.1,799.9,222.6,801.8,222.6"/>
	<path clip-path="url(#SVGID_6_)" fill="#00616A" d="M657.2,183.5c1.8,0,3.3-1.5,3.3-3.3c0-1.8-1.5-3.3-3.3-3.3s-3.3,1.5-3.3,3.3
		C653.9,182,655.4,183.5,657.2,183.5"/>
	<path clip-path="url(#SVGID_6_)" fill="#00616A" d="M657.2,202.6c1.8,0,3.3-1.5,3.3-3.3c0-1.8-1.5-3.3-3.3-3.3s-3.3,1.5-3.3,3.3
		C653.9,201.1,655.4,202.6,657.2,202.6"/>
	<path clip-path="url(#SVGID_6_)" fill="#00616A" d="M813.1,184.3c1.8,0,3.3-1.5,3.3-3.3c0-1.8-1.5-3.3-3.3-3.3
		c-1.8,0-3.3,1.5-3.3,3.3C809.8,182.8,811.3,184.3,813.1,184.3"/>
	<path clip-path="url(#SVGID_6_)" fill="#00616A" d="M657,222.6c1.8,0,3.3-1.5,3.3-3.3c0-1.8-1.5-3.3-3.3-3.3s-3.3,1.5-3.3,3.3
		C653.7,221.1,655.2,222.6,657,222.6"/>
	<path clip-path="url(#SVGID_6_)" fill="#00616A" d="M812.9,202.6c1.8,0,3.3-1.5,3.3-3.3c0-1.8-1.5-3.3-3.3-3.3
		c-1.8,0-3.3,1.5-3.3,3.3C809.6,201.1,811.1,202.6,812.9,202.6"/>
	<path clip-path="url(#SVGID_6_)" fill="#00616A" d="M812.9,241.4c1.8,0,3.3-1.5,3.3-3.3c0-1.8-1.5-3.3-3.3-3.3
		c-1.8,0-3.3,1.5-3.3,3.3C809.6,239.9,811.1,241.4,812.9,241.4"/>
	<path clip-path="url(#SVGID_6_)" fill="#00616A" d="M657,241.8c1.8,0,3.3-1.5,3.3-3.3c0-1.8-1.5-3.3-3.3-3.3s-3.3,1.5-3.3,3.3
		C653.7,240.3,655.2,241.8,657,241.8"/>
	<circle clip-path="url(#SVGID_6_)" fill="none" stroke="#00616A" stroke-width="0.75" cx="812.9" cy="219.3" r="3.3"/>
	<path clip-path="url(#SVGID_6_)" fill="#00616A" d="M668.4,183.5c1.8,0,3.3-1.5,3.3-3.3c0-1.8-1.5-3.3-3.3-3.3
		c-1.8,0-3.3,1.5-3.3,3.3C665.1,182,666.5,183.5,668.4,183.5"/>
	<path clip-path="url(#SVGID_6_)" fill="#00616A" d="M668.4,202.6c1.8,0,3.3-1.5,3.3-3.3c0-1.8-1.5-3.3-3.3-3.3
		c-1.8,0-3.3,1.5-3.3,3.3C665.1,201.1,666.5,202.6,668.4,202.6"/>
	<path clip-path="url(#SVGID_6_)" fill="#00616A" d="M824.3,184.3c1.8,0,3.3-1.5,3.3-3.3c0-1.8-1.5-3.3-3.3-3.3
		c-1.8,0-3.3,1.5-3.3,3.3C821,182.8,822.5,184.3,824.3,184.3"/>
	<path clip-path="url(#SVGID_6_)" fill="#00616A" d="M668.2,222.6c1.8,0,3.3-1.5,3.3-3.3c0-1.8-1.5-3.3-3.3-3.3
		c-1.8,0-3.3,1.5-3.3,3.3C664.8,221.1,666.3,222.6,668.2,222.6"/>
	<circle clip-path="url(#SVGID_6_)" fill="none" stroke="#00616A" cx="824.1" cy="199.3" r="3.3"/>
	<circle clip-path="url(#SVGID_6_)" fill="none" stroke="#00616A" stroke-width="0.75" cx="824.1" cy="238.1" r="3.3"/>
	<path clip-path="url(#SVGID_6_)" fill="#00616A" d="M668.2,241.8c1.8,0,3.3-1.5,3.3-3.3c0-1.8-1.5-3.3-3.3-3.3
		c-1.8,0-3.3,1.5-3.3,3.3C664.8,240.3,666.3,241.8,668.2,241.8"/>
	<circle clip-path="url(#SVGID_6_)" fill="none" stroke="#00616A" stroke-width="0.75" cx="824.1" cy="219.3" r="3.3"/>
	<circle clip-path="url(#SVGID_6_)" fill="none" stroke="#00616A" stroke-width="0.75" cx="679.5" cy="180.2" r="3.3"/>
	<circle clip-path="url(#SVGID_6_)" fill="none" stroke="#00616A" stroke-width="0.75" cx="679.5" cy="199.3" r="3.3"/>
	<circle clip-path="url(#SVGID_6_)" fill="none" stroke="#00616A" cx="835.4" cy="181" r="3.3"/>
	<circle clip-path="url(#SVGID_6_)" fill="none" stroke="#00616A" stroke-width="0.75" cx="679.3" cy="219.3" r="3.3"/>
	<circle clip-path="url(#SVGID_6_)" fill="none" stroke="#00616A" stroke-width="0.75" cx="835.2" cy="199.3" r="3.3"/>
	<circle clip-path="url(#SVGID_6_)" fill="none" stroke="#00616A" stroke-width="0.75" cx="834.9" cy="238.8" r="3.3"/>
	<circle clip-path="url(#SVGID_6_)" fill="none" stroke="#00616A" stroke-width="0.75" cx="679.3" cy="238.5" r="3.3"/>
	<circle clip-path="url(#SVGID_6_)" fill="none" stroke="#00616A" cx="835.2" cy="219.3" r="3.3"/>
</g>
</svg>
