<?xml version="1.0" encoding="utf-8"?>
<!-- Generator: Adobe Illustrator 18.1.1, SVG Export Plug-In . SVG Version: 6.00 Build 0)  -->
<svg version="1.1" id="Calque_1" xmlns="http://www.w3.org/2000/svg" xmlns:xlink="http://www.w3.org/1999/xlink" x="0px" y="0px"
	 viewBox="0 0 966.4 514.5" enable-background="new 0 0 966.4 514.5" xml:space="preserve">
<rect x="53.9" y="4" fill="#681E77" width="355" height="31.1"/>
<rect x="927.8" y="4" fill="#681E77" width="6.7" height="503.7"/>
<rect x="149.2" y="4" fill="#681E77" width="781.9" height="6.7"/>
<text transform="matrix(1 0 0 1 155.9543 241.9381)" fill="#18243F" font-family="'OpenSans'" font-size="10.7516">Design of the postal street furniture of tomorrow</text>
<path fill="#18243F" d="M161.3,255.3c0,0.7-0.2,1.2-0.7,1.6c-0.5,0.4-1.2,0.6-2,0.6c-0.9,0-1.6-0.1-2.1-0.4v-0.9
	c0.3,0.1,0.7,0.2,1,0.3c0.4,0.1,0.7,0.1,1.1,0.1c0.6,0,1-0.1,1.3-0.3c0.3-0.2,0.5-0.5,0.5-0.9c0-0.3-0.1-0.5-0.2-0.7
	c-0.1-0.2-0.3-0.3-0.5-0.5c-0.3-0.1-0.6-0.3-1.1-0.5c-0.7-0.3-1.2-0.6-1.5-0.9c-0.3-0.3-0.5-0.8-0.5-1.4c0-0.6,0.2-1.1,0.7-1.4
	c0.4-0.3,1-0.5,1.8-0.5c0.8,0,1.5,0.1,2.1,0.4l-0.3,0.8c-0.6-0.3-1.2-0.4-1.8-0.4c-0.5,0-0.8,0.1-1.1,0.3c-0.3,0.2-0.4,0.5-0.4,0.8
	c0,0.3,0,0.5,0.1,0.7c0.1,0.2,0.3,0.3,0.5,0.5c0.2,0.1,0.6,0.3,1.1,0.5c0.8,0.3,1.4,0.6,1.7,0.9
	C161.2,254.4,161.3,254.8,161.3,255.3z M164.6,256.8c0.2,0,0.3,0,0.4,0c0.1,0,0.3,0,0.3-0.1v0.7c-0.1,0-0.2,0.1-0.4,0.1
	c-0.2,0-0.3,0-0.5,0c-1.1,0-1.7-0.6-1.7-1.8v-3.4H162v-0.4l0.8-0.4l0.4-1.2h0.5v1.3h1.7v0.7h-1.7v3.4c0,0.3,0.1,0.6,0.2,0.8
	C164.1,256.7,164.4,256.8,164.6,256.8z M170.1,257.4l-0.2-0.8h0c-0.3,0.4-0.6,0.6-0.9,0.7c-0.3,0.1-0.6,0.2-1.1,0.2
	c-0.6,0-1-0.1-1.3-0.4c-0.3-0.3-0.5-0.7-0.5-1.3c0-1.2,0.9-1.8,2.8-1.8l1,0v-0.4c0-0.5-0.1-0.8-0.3-1s-0.5-0.3-0.9-0.3
	c-0.5,0-1,0.1-1.6,0.4l-0.3-0.7c0.3-0.2,0.6-0.3,0.9-0.4c0.3-0.1,0.7-0.1,1-0.1c0.7,0,1.2,0.2,1.5,0.5s0.5,0.8,0.5,1.5v3.9H170.1z
	 M168.1,256.8c0.5,0,1-0.1,1.3-0.4c0.3-0.3,0.5-0.7,0.5-1.2v-0.5l-0.9,0c-0.7,0-1.2,0.1-1.5,0.3c-0.3,0.2-0.5,0.5-0.5,0.9
	c0,0.3,0.1,0.6,0.3,0.7C167.5,256.7,167.8,256.8,168.1,256.8z M175.2,251.5c0.3,0,0.5,0,0.7,0.1l-0.1,0.8c-0.2-0.1-0.4-0.1-0.6-0.1
	c-0.5,0-0.9,0.2-1.2,0.6c-0.3,0.4-0.5,0.8-0.5,1.4v3.1h-0.9v-5.8h0.7l0.1,1.1h0c0.2-0.4,0.5-0.7,0.8-0.9
	C174.5,251.6,174.8,251.5,175.2,251.5z M178.8,256.8c0.2,0,0.3,0,0.4,0c0.1,0,0.3,0,0.3-0.1v0.7c-0.1,0-0.2,0.1-0.4,0.1
	c-0.2,0-0.3,0-0.5,0c-1.1,0-1.7-0.6-1.7-1.8v-3.4h-0.8v-0.4l0.8-0.4l0.4-1.2h0.5v1.3h1.7v0.7h-1.7v3.4c0,0.3,0.1,0.6,0.2,0.8
	C178.3,256.7,178.5,256.8,178.8,256.8z M180.3,254.9v-0.8h2.6v0.8H180.3z M185,251.6v3.7c0,0.5,0.1,0.8,0.3,1c0.2,0.2,0.5,0.3,1,0.3
	c0.6,0,1-0.2,1.3-0.5c0.3-0.3,0.4-0.9,0.4-1.6v-3h0.9v5.8h-0.7l-0.1-0.8h0c-0.2,0.3-0.4,0.5-0.7,0.7c-0.3,0.2-0.7,0.2-1.1,0.2
	c-0.7,0-1.2-0.2-1.6-0.5c-0.3-0.3-0.5-0.9-0.5-1.6v-3.8H185z M193.5,257.5c-0.4,0-0.7-0.1-1-0.2s-0.6-0.4-0.8-0.6h-0.1
	c0,0.3,0.1,0.7,0.1,1v2.4h-0.9v-8.3h0.7l0.1,0.8h0c0.2-0.3,0.5-0.5,0.8-0.7c0.3-0.1,0.6-0.2,1-0.2c0.8,0,1.4,0.3,1.8,0.8
	c0.4,0.5,0.6,1.3,0.6,2.2c0,0.9-0.2,1.7-0.6,2.2C194.8,257.2,194.2,257.5,193.5,257.5z M193.4,252.3c-0.6,0-1,0.2-1.3,0.5
	c-0.3,0.3-0.4,0.8-0.4,1.6v0.2c0,0.8,0.1,1.4,0.4,1.7c0.3,0.3,0.7,0.5,1.3,0.5c0.5,0,0.9-0.2,1.2-0.6c0.3-0.4,0.4-1,0.4-1.7
	c0-0.7-0.1-1.3-0.4-1.7C194.3,252.5,193.9,252.3,193.4,252.3z M203.9,255.8c0,0.5-0.2,0.9-0.6,1.2c-0.4,0.3-1,0.4-1.7,0.4
	c-0.8,0-1.4-0.1-1.8-0.4v-0.8c0.3,0.1,0.6,0.3,0.9,0.3c0.3,0.1,0.6,0.1,0.9,0.1c0.5,0,0.8-0.1,1-0.2c0.2-0.1,0.4-0.4,0.4-0.7
	c0-0.2-0.1-0.4-0.3-0.6c-0.2-0.2-0.6-0.3-1.1-0.6c-0.5-0.2-0.9-0.4-1.1-0.5c-0.2-0.1-0.4-0.3-0.5-0.5s-0.2-0.4-0.2-0.7
	c0-0.5,0.2-0.8,0.6-1.1c0.4-0.3,0.9-0.4,1.6-0.4c0.6,0,1.2,0.1,1.8,0.4l-0.3,0.7c-0.6-0.2-1.1-0.4-1.6-0.4c-0.4,0-0.7,0.1-0.9,0.2
	c-0.2,0.1-0.3,0.3-0.3,0.5c0,0.2,0,0.3,0.1,0.4c0.1,0.1,0.2,0.2,0.4,0.3c0.2,0.1,0.5,0.2,1,0.4c0.7,0.2,1.1,0.5,1.4,0.8
	C203.8,255.1,203.9,255.4,203.9,255.8z M206.1,251.6v3.7c0,0.5,0.1,0.8,0.3,1c0.2,0.2,0.5,0.3,1,0.3c0.6,0,1-0.2,1.3-0.5
	c0.3-0.3,0.4-0.9,0.4-1.6v-3h0.9v5.8h-0.7l-0.1-0.8h0c-0.2,0.3-0.4,0.5-0.7,0.7c-0.3,0.2-0.7,0.2-1.1,0.2c-0.7,0-1.2-0.2-1.6-0.5
	c-0.3-0.3-0.5-0.9-0.5-1.6v-3.8H206.1z M214.6,257.5c-0.4,0-0.7-0.1-1-0.2s-0.6-0.4-0.8-0.6h-0.1c0,0.3,0.1,0.7,0.1,1v2.4h-0.9v-8.3
	h0.7l0.1,0.8h0c0.2-0.3,0.5-0.5,0.8-0.7c0.3-0.1,0.6-0.2,1-0.2c0.8,0,1.4,0.3,1.8,0.8c0.4,0.5,0.6,1.3,0.6,2.2
	c0,0.9-0.2,1.7-0.6,2.2C215.9,257.2,215.3,257.5,214.6,257.5z M214.5,252.3c-0.6,0-1,0.2-1.3,0.5c-0.3,0.3-0.4,0.8-0.4,1.6v0.2
	c0,0.8,0.1,1.4,0.4,1.7c0.3,0.3,0.7,0.5,1.3,0.5c0.5,0,0.9-0.2,1.2-0.6c0.3-0.4,0.4-1,0.4-1.7c0-0.7-0.1-1.3-0.4-1.7
	C215.4,252.5,215,252.3,214.5,252.3z M221.2,257.5c-0.4,0-0.7-0.1-1-0.2s-0.6-0.4-0.8-0.6h-0.1c0,0.3,0.1,0.7,0.1,1v2.4h-0.9v-8.3
	h0.7l0.1,0.8h0c0.2-0.3,0.5-0.5,0.8-0.7c0.3-0.1,0.6-0.2,1-0.2c0.8,0,1.4,0.3,1.8,0.8c0.4,0.5,0.6,1.3,0.6,2.2
	c0,0.9-0.2,1.7-0.6,2.2C222.5,257.2,221.9,257.5,221.2,257.5z M221.1,252.3c-0.6,0-1,0.2-1.3,0.5c-0.3,0.3-0.4,0.8-0.4,1.6v0.2
	c0,0.8,0.1,1.4,0.4,1.7c0.3,0.3,0.7,0.5,1.3,0.5c0.5,0,0.9-0.2,1.2-0.6c0.3-0.4,0.4-1,0.4-1.7c0-0.7-0.1-1.3-0.4-1.7
	C222,252.5,221.6,252.3,221.1,252.3z M230.1,254.5c0,0.9-0.2,1.7-0.7,2.2c-0.5,0.5-1.1,0.8-2,0.8c-0.5,0-1-0.1-1.4-0.4
	s-0.7-0.6-0.9-1c-0.2-0.5-0.3-1-0.3-1.6c0-0.9,0.2-1.7,0.7-2.2c0.5-0.5,1.1-0.8,2-0.8c0.8,0,1.4,0.3,1.9,0.8
	C229.8,252.9,230.1,253.6,230.1,254.5z M225.7,254.5c0,0.7,0.1,1.3,0.4,1.7c0.3,0.4,0.7,0.6,1.3,0.6c0.6,0,1-0.2,1.3-0.6
	c0.3-0.4,0.4-0.9,0.4-1.7c0-0.7-0.1-1.3-0.4-1.7c-0.3-0.4-0.7-0.6-1.3-0.6c-0.6,0-1,0.2-1.3,0.6
	C225.8,253.2,225.7,253.8,225.7,254.5z M234.2,251.5c0.3,0,0.5,0,0.7,0.1l-0.1,0.8c-0.2-0.1-0.4-0.1-0.6-0.1c-0.5,0-0.9,0.2-1.2,0.6
	c-0.3,0.4-0.5,0.8-0.5,1.4v3.1h-0.9v-5.8h0.7l0.1,1.1h0c0.2-0.4,0.5-0.7,0.8-0.9C233.5,251.6,233.9,251.5,234.2,251.5z M237.8,256.8
	c0.2,0,0.3,0,0.4,0c0.1,0,0.3,0,0.3-0.1v0.7c-0.1,0-0.2,0.1-0.4,0.1c-0.2,0-0.3,0-0.5,0c-1.1,0-1.7-0.6-1.7-1.8v-3.4h-0.8v-0.4
	l0.8-0.4l0.4-1.2h0.5v1.3h1.7v0.7h-1.7v3.4c0,0.3,0.1,0.6,0.2,0.8C237.3,256.7,237.5,256.8,237.8,256.8z M246.1,257.4l-0.2-0.8h0
	c-0.3,0.4-0.6,0.6-0.9,0.7c-0.3,0.1-0.6,0.2-1.1,0.2c-0.6,0-1-0.1-1.3-0.4c-0.3-0.3-0.5-0.7-0.5-1.3c0-1.2,0.9-1.8,2.8-1.8l1,0v-0.4
	c0-0.5-0.1-0.8-0.3-1c-0.2-0.2-0.5-0.3-0.9-0.3c-0.5,0-1,0.1-1.6,0.4l-0.3-0.7c0.3-0.2,0.6-0.3,0.9-0.4c0.3-0.1,0.7-0.1,1-0.1
	c0.7,0,1.2,0.2,1.5,0.5s0.5,0.8,0.5,1.5v3.9H246.1z M244.1,256.8c0.5,0,1-0.1,1.3-0.4c0.3-0.3,0.5-0.7,0.5-1.2v-0.5l-0.9,0
	c-0.7,0-1.2,0.1-1.5,0.3c-0.3,0.2-0.5,0.5-0.5,0.9c0,0.3,0.1,0.6,0.3,0.7C243.5,256.7,243.8,256.8,244.1,256.8z M252.5,257.4v-3.7
	c0-0.5-0.1-0.8-0.3-1c-0.2-0.2-0.5-0.3-1-0.3c-0.6,0-1,0.2-1.3,0.5c-0.3,0.3-0.4,0.9-0.4,1.6v3h-0.9v-5.8h0.7l0.1,0.8h0
	c0.2-0.3,0.4-0.5,0.8-0.7c0.3-0.2,0.7-0.2,1.1-0.2c0.7,0,1.2,0.2,1.6,0.5c0.3,0.3,0.5,0.9,0.5,1.6v3.8H252.5z M259.1,256.6
	L259.1,256.6c-0.4,0.6-1.1,0.9-1.9,0.9c-0.8,0-1.3-0.3-1.8-0.8c-0.4-0.5-0.6-1.2-0.6-2.2c0-0.9,0.2-1.7,0.6-2.2s1-0.8,1.8-0.8
	c0.8,0,1.4,0.3,1.8,0.9h0.1l0-0.4l0-0.4v-2.3h0.9v8.2h-0.7L259.1,256.6z M257.3,256.8c0.6,0,1-0.2,1.3-0.5c0.3-0.3,0.4-0.8,0.4-1.6
	v-0.2c0-0.8-0.1-1.4-0.4-1.7c-0.3-0.3-0.7-0.5-1.3-0.5c-0.5,0-0.9,0.2-1.2,0.6c-0.3,0.4-0.4,1-0.4,1.7c0,0.7,0.1,1.3,0.4,1.7
	C256.4,256.6,256.8,256.8,257.3,256.8z M267.2,251.5c0.3,0,0.5,0,0.7,0.1l-0.1,0.8c-0.2-0.1-0.4-0.1-0.6-0.1c-0.5,0-0.9,0.2-1.2,0.6
	c-0.3,0.4-0.5,0.8-0.5,1.4v3.1h-0.9v-5.8h0.7l0.1,1.1h0c0.2-0.4,0.5-0.7,0.8-0.9C266.5,251.6,266.8,251.5,267.2,251.5z M271.4,257.5
	c-0.9,0-1.5-0.3-2-0.8c-0.5-0.5-0.7-1.2-0.7-2.2c0-0.9,0.2-1.7,0.7-2.2c0.5-0.5,1.1-0.8,1.8-0.8c0.7,0,1.3,0.2,1.7,0.7
	c0.4,0.5,0.6,1.1,0.6,1.9v0.6h-4c0,0.7,0.2,1.2,0.5,1.5c0.3,0.4,0.8,0.5,1.4,0.5c0.6,0,1.2-0.1,1.8-0.4v0.8
	c-0.3,0.1-0.6,0.2-0.9,0.3C272.1,257.5,271.7,257.5,271.4,257.5z M271.1,252.3c-0.5,0-0.8,0.2-1.1,0.5c-0.3,0.3-0.4,0.7-0.5,1.2h3
	c0-0.5-0.1-1-0.4-1.3C271.9,252.4,271.6,252.3,271.1,252.3z M278.9,256.6L278.9,256.6c-0.4,0.6-1.1,0.9-1.9,0.9
	c-0.8,0-1.3-0.3-1.8-0.8c-0.4-0.5-0.6-1.2-0.6-2.2c0-0.9,0.2-1.7,0.6-2.2s1-0.8,1.8-0.8c0.8,0,1.4,0.3,1.8,0.9h0.1l0-0.4l0-0.4v-2.3
	h0.9v8.2H279L278.9,256.6z M277.1,256.8c0.6,0,1-0.2,1.3-0.5c0.3-0.3,0.4-0.8,0.4-1.6v-0.2c0-0.8-0.1-1.4-0.4-1.7
	c-0.3-0.3-0.7-0.5-1.3-0.5c-0.5,0-0.9,0.2-1.2,0.6c-0.3,0.4-0.4,1-0.4,1.7c0,0.7,0.1,1.3,0.4,1.7
	C276.2,256.6,276.6,256.8,277.1,256.8z M284,257.5c-0.9,0-1.5-0.3-2-0.8c-0.5-0.5-0.7-1.2-0.7-2.2c0-0.9,0.2-1.7,0.7-2.2
	s1.1-0.8,1.8-0.8c0.7,0,1.3,0.2,1.7,0.7c0.4,0.5,0.6,1.1,0.6,1.9v0.6h-4c0,0.7,0.2,1.2,0.5,1.5c0.3,0.4,0.8,0.5,1.4,0.5
	c0.6,0,1.2-0.1,1.8-0.4v0.8c-0.3,0.1-0.6,0.2-0.9,0.3C284.7,257.5,284.4,257.5,284,257.5z M283.7,252.3c-0.5,0-0.8,0.2-1.1,0.5
	c-0.3,0.3-0.4,0.7-0.5,1.2h3c0-0.5-0.1-1-0.4-1.3C284.5,252.4,284.2,252.3,283.7,252.3z M290.2,252.3h-1.5v5.1h-0.9v-5.1h-1v-0.4
	l1-0.3v-0.3c0-1.4,0.6-2.1,1.9-2.1c0.3,0,0.7,0.1,1.1,0.2l-0.2,0.7c-0.3-0.1-0.6-0.2-0.9-0.2c-0.3,0-0.6,0.1-0.7,0.3
	c-0.2,0.2-0.2,0.6-0.2,1.1v0.4h1.5V252.3z M291.1,250.1c0-0.2,0-0.3,0.1-0.4c0.1-0.1,0.2-0.1,0.4-0.1c0.1,0,0.3,0,0.4,0.1
	c0.1,0.1,0.2,0.2,0.2,0.4c0,0.2-0.1,0.3-0.2,0.4c-0.1,0.1-0.2,0.1-0.4,0.1c-0.1,0-0.3,0-0.4-0.1
	C291.2,250.4,291.1,250.3,291.1,250.1z M292.1,257.4h-0.9v-5.8h0.9V257.4z M297.9,257.4v-3.7c0-0.5-0.1-0.8-0.3-1
	c-0.2-0.2-0.5-0.3-1-0.3c-0.6,0-1,0.2-1.3,0.5c-0.3,0.3-0.4,0.9-0.4,1.6v3h-0.9v-5.8h0.7l0.1,0.8h0c0.2-0.3,0.4-0.5,0.8-0.7
	c0.3-0.2,0.7-0.2,1.1-0.2c0.7,0,1.2,0.2,1.6,0.5c0.3,0.3,0.5,0.9,0.5,1.6v3.8H297.9z M300.5,250.1c0-0.2,0-0.3,0.1-0.4
	c0.1-0.1,0.2-0.1,0.4-0.1c0.1,0,0.3,0,0.4,0.1c0.1,0.1,0.2,0.2,0.2,0.4c0,0.2-0.1,0.3-0.2,0.4c-0.1,0.1-0.2,0.1-0.4,0.1
	c-0.1,0-0.3,0-0.4-0.1C300.5,250.4,300.5,250.3,300.5,250.1z M301.4,257.4h-0.9v-5.8h0.9V257.4z M305.1,256.8c0.2,0,0.3,0,0.4,0
	c0.1,0,0.3,0,0.3-0.1v0.7c-0.1,0-0.2,0.1-0.4,0.1c-0.2,0-0.3,0-0.5,0c-1.1,0-1.7-0.6-1.7-1.8v-3.4h-0.8v-0.4l0.8-0.4l0.4-1.2h0.5
	v1.3h1.7v0.7h-1.7v3.4c0,0.3,0.1,0.6,0.2,0.8C304.6,256.7,304.8,256.8,305.1,256.8z M307,250.1c0-0.2,0-0.3,0.1-0.4
	c0.1-0.1,0.2-0.1,0.4-0.1c0.1,0,0.3,0,0.4,0.1c0.1,0.1,0.2,0.2,0.2,0.4c0,0.2-0.1,0.3-0.2,0.4c-0.1,0.1-0.2,0.1-0.4,0.1
	c-0.1,0-0.3,0-0.4-0.1C307,250.4,307,250.3,307,250.1z M307.9,257.4h-0.9v-5.8h0.9V257.4z M314.7,254.5c0,0.9-0.2,1.7-0.7,2.2
	c-0.5,0.5-1.1,0.8-2,0.8c-0.5,0-1-0.1-1.4-0.4s-0.7-0.6-0.9-1c-0.2-0.5-0.3-1-0.3-1.6c0-0.9,0.2-1.7,0.7-2.2c0.5-0.5,1.1-0.8,2-0.8
	c0.8,0,1.4,0.3,1.9,0.8C314.5,252.9,314.7,253.6,314.7,254.5z M310.4,254.5c0,0.7,0.1,1.3,0.4,1.7c0.3,0.4,0.7,0.6,1.3,0.6
	c0.6,0,1-0.2,1.3-0.6c0.3-0.4,0.4-0.9,0.4-1.7c0-0.7-0.1-1.3-0.4-1.7c-0.3-0.4-0.7-0.6-1.3-0.6c-0.6,0-1,0.2-1.3,0.6
	C310.5,253.2,310.4,253.8,310.4,254.5z M320.2,257.4v-3.7c0-0.5-0.1-0.8-0.3-1c-0.2-0.2-0.5-0.3-1-0.3c-0.6,0-1,0.2-1.3,0.5
	c-0.3,0.3-0.4,0.9-0.4,1.6v3h-0.9v-5.8h0.7l0.1,0.8h0c0.2-0.3,0.4-0.5,0.8-0.7c0.3-0.2,0.7-0.2,1.1-0.2c0.7,0,1.2,0.2,1.6,0.5
	c0.3,0.3,0.5,0.9,0.5,1.6v3.8H320.2z"/>
<text transform="matrix(1 0 0 1 155.9543 272.8385)" fill="#18243F" font-family="'OpenSans'" font-size="10.7516">Smart cities and the role of La Poste</text>
<text transform="matrix(1 0 0 1 155.9543 104.7057)" fill="#18243F" font-family="'OpenSans'" font-size="10.7516">Translation French/English</text>
<text transform="matrix(1 0 0 1 155.9543 120.1559)" fill="#18243F" font-family="'OpenSans'" font-size="10.7516">UX/UI design</text>
<text transform="matrix(1 0 0 1 155.9543 135.6051)" fill="#18243F" font-family="'OpenSans'" font-size="10.7516">3D (3DS max, Solidworks) </text>
<text transform="matrix(1 0 0 1 155.9543 151.0563)" fill="#18243F" font-family="'OpenSans'" font-size="10.7516">Benchmark </text>
<text transform="matrix(1 0 0 1 155.9543 166.5055)" fill="#18243F" font-family="'OpenSans'" font-size="10.7516">Video making</text>
<text transform="matrix(1 0 0 1 157.008 451.712)" fill="#18243F" font-family="'OpenSans'" font-size="10.7516">Research of precedents</text>
<text transform="matrix(1 0 0 1 157.008 467.1613)" fill="#18243F" font-family="'OpenSans'" font-size="10.7516">Overview of my research</text>
<text transform="matrix(1 0 0 1 563.1916 108.8668)" fill="#18243F" font-family="'OpenSans'" font-size="10.7516">Discovery of Chinese culture: arts, history, economy...</text>
<text transform="matrix(1 0 0 1 563.1916 177.5582)" fill="#18243F" font-family="'OpenSans'" font-size="10.7516">Experience in sales</text>
<text transform="matrix(1 0 0 1 563.1916 193.0094)" fill="#18243F" font-family="'OpenSans'" font-size="10.7516">Customer relationship</text>
<text transform="matrix(1 0 0 1 62.2648 24.9791)" fill="#FFFFFF" font-family="'OpenSans-Light'" font-size="16.6347">PROFESSIONAL EXPERIENCES</text>
<text transform="matrix(1 0 0 1 121.7258 413.0558)" fill="#652576" font-family="'OpenSans'" font-size="13.1408">September </text>
<text transform="matrix(1 0 0 1 121.7258 429.7853)" fill="#652576" font-family="'OpenSans'" font-size="13.1408">2012</text>
<text transform="matrix(1 0 0 1 528.5783 67.9928)" fill="#652576" font-family="'OpenSans'" font-size="13.1408">July 2012</text>
<text transform="matrix(1 0 0 1 528.5783 152.6715)" fill="#652576" font-family="'OpenSans'" font-size="13.1408">June 2012</text>
<text transform="matrix(1 0 0 1 528.5783 237.4176)" fill="#652576" font-family="'OpenSans'" font-size="13.1408">Summer </text>
<text transform="matrix(1 0 0 1 528.5783 254.1461)" fill="#652576" font-family="'OpenSans'" font-size="13.1408">2011</text>
<text transform="matrix(1 0 0 1 122.3967 201.858)"><tspan x="0" y="0" fill="#652576" font-family="'OpenSans'" font-size="13.1408">Fe</tspan><tspan x="13.6" y="0" fill="#652576" font-family="'OpenSans'" font-size="13.1408">b</tspan><tspan x="21.4" y="0" fill="#652576" font-family="'OpenSans'" font-size="13.1408">r</tspan><tspan x="26.5" y="0" fill="#652576" font-family="'OpenSans'" font-size="13.1408">u</tspan><tspan x="34.3" y="0" fill="#652576" font-family="'OpenSans'" font-size="13.1408">ar</tspan><tspan x="46.5" y="0" fill="#652576" font-family="'OpenSans'" font-size="13.1408">y </tspan><tspan x="56" y="0" fill="#652576" font-family="'OpenSans'" font-size="13.1408">t</tspan><tspan x="60.4" y="0" fill="#652576" font-family="'OpenSans'" font-size="13.1408">o </tspan></text>
<text transform="matrix(1 0 0 1 122.3967 218.4948)"><tspan x="0" y="0" fill="#652576" font-family="'OpenSans'" font-size="13.1408">J</tspan><tspan x="3.2" y="0" fill="#652576" font-family="'OpenSans'" font-size="13.1408">un</tspan><tspan x="18.9" y="0" fill="#652576" font-family="'OpenSans'" font-size="13.1408">e</tspan><tspan x="26" y="0" fill="#652576" font-family="'OpenSans'" font-size="13.1408"> 201</tspan><tspan x="50.9" y="0" fill="#652576" font-family="'OpenSans'" font-size="13.1408">5</tspan></text>
<text transform="matrix(1 0 0 1 122.3967 67.1647)" fill="#652576" font-family="'OpenSans'" font-size="13.1408">Since May </text>
<text transform="matrix(1 0 0 1 122.3967 83.8014)" fill="#652576" font-family="'OpenSans'" font-size="13.1408">2015</text>
<text transform="matrix(1 0 0 1 529.1965 371.5841)" fill="#652576" font-family="'OpenSans'" font-size="13.1408">Summer </text>
<text transform="matrix(1 0 0 1 529.1965 388.3126)" fill="#652576" font-family="'OpenSans'" font-size="13.1408">2007</text>
<text transform="matrix(1 0 0 1 212.8185 413.0831)" fill="#18243F" font-family="'OpenSans-Semibold'" font-size="13.1408">Internship at Proskauer, </text>
<text transform="matrix(1 0 0 1 212.8185 429.7189)" fill="#18243F" font-family="'OpenSans-Semibold'" font-size="13.1408">American law practice, Paris</text>
<text transform="matrix(1 0 0 1 619.8405 68.0192)"><tspan x="0" y="0" fill="#18243F" font-family="'OpenSans-Semibold'" font-size="13.1408">Su</tspan><tspan x="15.3" y="0" fill="#18243F" font-family="'OpenSans-Semibold'" font-size="13.1408">mmer</tspan><tspan x="53.2" y="0" fill="#18243F" font-family="'OpenSans-Semibold'" font-size="13.1408" letter-spacing="14"> </tspan><tspan x="71" y="0" fill="#18243F" font-family="'OpenSans-Semibold'" font-size="13.1408">S</tspan><tspan x="78.1" y="0" fill="#18243F" font-family="'OpenSans-Semibold'" font-size="13.1408">c</tspan><tspan x="84.5" y="0" fill="#18243F" font-family="'OpenSans-Semibold'" font-size="13.1408">hool</tspan><tspan x="112.1" y="0" fill="#18243F" font-family="'OpenSans-Semibold'" font-size="13.1408" letter-spacing="14"> </tspan><tspan x="129.9" y="0" fill="#18243F" font-family="'OpenSans-Semibold'" font-size="13.1408">at</tspan><tspan x="142.4" y="0" fill="#18243F" font-family="'OpenSans-Semibold'" font-size="13.1408" letter-spacing="14"> </tspan><tspan x="160.2" y="0" fill="#18243F" font-family="'OpenSans-Semibold'" font-size="13.1408">t</tspan><tspan x="165.3" y="0" fill="#18243F" font-family="'OpenSans-Semibold'" font-size="13.1408">h</tspan><tspan x="173.5" y="0" fill="#18243F" font-family="'OpenSans-Semibold'" font-size="13.1408">e</tspan><tspan x="180.9" y="0" fill="#18243F" font-family="'OpenSans-Semibold'" font-size="13.1408" letter-spacing="14"> </tspan><tspan x="198.8" y="0" fill="#18243F" font-family="'OpenSans-Semibold'" font-size="13.1408">Yunn</tspan><tspan x="231.1" y="0" fill="#18243F" font-family="'OpenSans-Semibold'" font-size="13.1408">a</tspan><tspan x="238.6" y="0" fill="#18243F" font-family="'OpenSans-Semibold'" font-size="13.1408">n </tspan></text>
<text transform="matrix(1 0 0 1 619.8405 84.6559)"><tspan x="0" y="0" fill="#18243F" font-family="'OpenSans-Semibold'" font-size="13.1408">U</tspan><tspan x="9.6" y="0" fill="#18243F" font-family="'OpenSans-Semibold'" font-size="13.1408">ni</tspan><tspan x="21.4" y="0" fill="#18243F" font-family="'OpenSans-Semibold'" font-size="13.1408">ver</tspan><tspan x="41.3" y="0" fill="#18243F" font-family="'OpenSans-Semibold'" font-size="13.1408">si</tspan><tspan x="51.1" y="0" fill="#18243F" font-family="'OpenSans-Semibold'" font-size="13.1408">ty,</tspan><tspan x="66.4" y="0" fill="#18243F" font-family="'OpenSans-Semibold'" font-size="13.1408"> </tspan><tspan x="69.7" y="0" fill="#18243F" font-family="'OpenSans-Semibold'" font-size="13.1408">K</tspan><tspan x="78" y="0" fill="#18243F" font-family="'OpenSans-Semibold'" font-size="13.1408">un</tspan><tspan x="94.4" y="0" fill="#18243F" font-family="'OpenSans-Semibold'" font-size="13.1408">m</tspan><tspan x="106.9" y="0" fill="#18243F" font-family="'OpenSans-Semibold'" font-size="13.1408">in</tspan><tspan x="118.6" y="0" fill="#18243F" font-family="'OpenSans-Semibold'" font-size="13.1408">g,</tspan><tspan x="129.2" y="0" fill="#18243F" font-family="'OpenSans-Semibold'" font-size="13.1408"> Chin</tspan><tspan x="160.7" y="0" fill="#18243F" font-family="'OpenSans-Semibold'" font-size="13.1408">a</tspan></text>
<text transform="matrix(1 0 0 1 619.8405 151.4362)"><tspan x="0" y="0" fill="#18243F" font-family="'OpenSans-Semibold'" font-size="13.1408">Su</tspan><tspan x="15.3" y="0" fill="#18243F" font-family="'OpenSans-Semibold'" font-size="13.1408">mmer</tspan><tspan x="53.2" y="0" fill="#18243F" font-family="'OpenSans-Semibold'" font-size="13.1408"> </tspan><tspan x="55.7" y="0" fill="#18243F" font-family="'OpenSans-Semibold'" font-size="13.1408">Jo</tspan><tspan x="67.5" y="0" fill="#18243F" font-family="'OpenSans-Semibold'" font-size="13.1408">b</tspan><tspan x="75.5" y="0" fill="#18243F" font-family="'OpenSans-Semibold'" font-size="13.1408"> </tspan><tspan x="78.1" y="0" fill="#18243F" font-family="'OpenSans-Semibold'" font-size="13.1408">at</tspan><tspan x="90.6" y="0" fill="#18243F" font-family="'OpenSans-Semibold'" font-size="13.1408"> </tspan><tspan x="93.2" y="0" fill="#18243F" font-family="'OpenSans-Semibold'" font-size="13.1408">“L</tspan><tspan x="105.3" y="0" fill="#18243F" font-family="'OpenSans-Semibold'" font-size="13.1408">a</tspan><tspan x="112.8" y="0" fill="#18243F" font-family="'OpenSans-Semibold'" font-size="13.1408"> </tspan><tspan x="115.3" y="0" fill="#18243F" font-family="'OpenSans-Semibold'" font-size="13.1408">Ch</tspan><tspan x="131.8" y="0" fill="#18243F" font-family="'OpenSans-Semibold'" font-size="13.1408">a</tspan><tspan x="139.3" y="0" fill="#18243F" font-family="'OpenSans-Semibold'" font-size="13.1408">is</tspan><tspan x="149.1" y="0" fill="#18243F" font-family="'OpenSans-Semibold'" font-size="13.1408">e</tspan><tspan x="156.5" y="0" fill="#18243F" font-family="'OpenSans-Semibold'" font-size="13.1408"> </tspan><tspan x="159.1" y="0" fill="#18243F" font-family="'OpenSans-Semibold'" font-size="13.1408">Lon</tspan><tspan x="182.2" y="0" fill="#18243F" font-family="'OpenSans-Semibold'" font-size="13.1408">g</tspan><tspan x="189.4" y="0" fill="#18243F" font-family="'OpenSans-Semibold'" font-size="13.1408">u</tspan><tspan x="197.6" y="0" fill="#18243F" font-family="'OpenSans-Semibold'" font-size="13.1408">e</tspan><tspan x="205.1" y="0" fill="#18243F" font-family="'OpenSans-Semibold'" font-size="13.1408">”</tspan><tspan x="210.2" y="0" fill="#18243F" font-family="'OpenSans-Semibold'" font-size="13.1408">,</tspan><tspan x="213.6" y="0" fill="#18243F" font-family="'OpenSans-Semibold'" font-size="13.1408"> </tspan><tspan x="216.1" y="0" fill="#18243F" font-family="'OpenSans-Semibold'" font-size="13.1408">Par</tspan><tspan x="237.1" y="0" fill="#18243F" font-family="'OpenSans-Semibold'" font-size="13.1408">i</tspan><tspan x="240.7" y="0" fill="#18243F" font-family="'OpenSans-Semibold'" font-size="13.1408">s</tspan></text>
<text transform="matrix(1 0 0 1 619.8405 237.4577)"><tspan x="0" y="0" fill="#18243F" font-family="'OpenSans-Semibold'" font-size="13.1408">I</tspan><tspan x="3.9" y="0" fill="#18243F" font-family="'OpenSans-Semibold'" font-size="13.1408">n</tspan><tspan x="12.1" y="0" fill="#18243F" font-family="'OpenSans-Semibold'" font-size="13.1408">ter</tspan><tspan x="30.1" y="0" fill="#18243F" font-family="'OpenSans-Semibold'" font-size="13.1408">nshi</tspan><tspan x="56.4" y="0" fill="#18243F" font-family="'OpenSans-Semibold'" font-size="13.1408">p</tspan><tspan x="64.4" y="0" fill="#18243F" font-family="'OpenSans-Semibold'" font-size="13.1408"> </tspan><tspan x="67.7" y="0" fill="#18243F" font-family="'OpenSans-Semibold'" font-size="13.1408">at</tspan><tspan x="80.3" y="0" fill="#18243F" font-family="'OpenSans-Semibold'" font-size="13.1408"> </tspan><tspan x="83.6" y="0" fill="#18243F" font-family="'OpenSans-Semibold'" font-size="13.1408">t</tspan><tspan x="88.6" y="0" fill="#18243F" font-family="'OpenSans-Semibold'" font-size="13.1408">h</tspan><tspan x="96.8" y="0" fill="#18243F" font-family="'OpenSans-Semibold'" font-size="13.1408">e</tspan><tspan x="104.2" y="0" fill="#18243F" font-family="'OpenSans-Semibold'" font-size="13.1408"> </tspan><tspan x="107.5" y="0" fill="#18243F" font-family="'OpenSans-Semibold'" font-size="13.1408">a</tspan><tspan x="115" y="0" fill="#18243F" font-family="'OpenSans-Semibold'" font-size="13.1408">sso</tspan><tspan x="135.5" y="0" fill="#18243F" font-family="'OpenSans-Semibold'" font-size="13.1408">c</tspan><tspan x="141.9" y="0" fill="#18243F" font-family="'OpenSans-Semibold'" font-size="13.1408">i</tspan><tspan x="145.4" y="0" fill="#18243F" font-family="'OpenSans-Semibold'" font-size="13.1408">at</tspan><tspan x="157.9" y="0" fill="#18243F" font-family="'OpenSans-Semibold'" font-size="13.1408">io</tspan><tspan x="169.4" y="0" fill="#18243F" font-family="'OpenSans-Semibold'" font-size="13.1408">n </tspan></text>
<text transform="matrix(1 0 0 1 619.8405 254.0934)"><tspan x="0" y="0" fill="#18243F" font-family="'OpenSans-Semibold'" font-size="13.1408">«</tspan><tspan x="7.2" y="0" fill="#18243F" font-family="'OpenSans-Semibold'" font-size="13.1408"> </tspan><tspan x="9.8" y="0" fill="#18243F" font-family="'OpenSans-Semibold'" font-size="13.1408">L</tspan><tspan x="16.8" y="0" fill="#18243F" font-family="'OpenSans-Semibold'" font-size="13.1408">a</tspan><tspan x="24.3" y="0" fill="#18243F" font-family="'OpenSans-Semibold'" font-size="13.1408"> </tspan><tspan x="27" y="0" fill="#18243F" font-family="'OpenSans-Semibold'" font-size="13.1408">V</tspan><tspan x="35" y="0" fill="#18243F" font-family="'OpenSans-Semibold'" font-size="13.1408">oix</tspan><tspan x="53.6" y="0" fill="#18243F" font-family="'OpenSans-Semibold'" font-size="13.1408"> </tspan><tspan x="56.2" y="0" fill="#18243F" font-family="'OpenSans-Semibold'" font-size="13.1408">de</tspan><tspan x="71.7" y="0" fill="#18243F" font-family="'OpenSans-Semibold'" font-size="13.1408"> </tspan><tspan x="74.4" y="0" fill="#18243F" font-family="'OpenSans-Semibold'" font-size="13.1408">l’</tspan><tspan x="80.4" y="0" fill="#18243F" font-family="'OpenSans-Semibold'" font-size="13.1408">E</tspan><tspan x="87.6" y="0" fill="#18243F" font-family="'OpenSans-Semibold'" font-size="13.1408">nf</tspan><tspan x="100.4" y="0" fill="#18243F" font-family="'OpenSans-Semibold'" font-size="13.1408">a</tspan><tspan x="107.9" y="0" fill="#18243F" font-family="'OpenSans-Semibold'" font-size="13.1408">n</tspan><tspan x="116.1" y="0" fill="#18243F" font-family="'OpenSans-Semibold'" font-size="13.1408">t</tspan><tspan x="121.2" y="0" fill="#18243F" font-family="'OpenSans-Semibold'" font-size="13.1408"> </tspan><tspan x="123.8" y="0" fill="#18243F" font-family="'OpenSans-Semibold'" font-size="13.1408">»</tspan><tspan x="131" y="0" fill="#18243F" font-family="'OpenSans-Semibold'" font-size="13.1408"> </tspan><tspan x="133.7" y="0" fill="#18243F" font-family="'OpenSans-Semibold'" font-size="13.1408">(Th</tspan><tspan x="153.2" y="0" fill="#18243F" font-family="'OpenSans-Semibold'" font-size="13.1408">e</tspan><tspan x="160.7" y="0" fill="#18243F" font-family="'OpenSans-Semibold'" font-size="13.1408"> </tspan><tspan x="163.3" y="0" fill="#18243F" font-family="'OpenSans-Semibold'" font-size="13.1408">Chil</tspan><tspan x="186.9" y="0" fill="#18243F" font-family="'OpenSans-Semibold'" font-size="13.1408">d</tspan><tspan x="194.9" y="0" fill="#18243F" font-family="'OpenSans-Semibold'" font-size="13.1408">’s</tspan><tspan x="203.6" y="0" fill="#18243F" font-family="'OpenSans-Semibold'" font-size="13.1408"> </tspan><tspan x="206.3" y="0" fill="#18243F" font-family="'OpenSans-Semibold'" font-size="13.1408">V</tspan><tspan x="214.3" y="0" fill="#18243F" font-family="'OpenSans-Semibold'" font-size="13.1408">oi</tspan><tspan x="225.8" y="0" fill="#18243F" font-family="'OpenSans-Semibold'" font-size="13.1408">ce</tspan><tspan x="239.6" y="0" fill="#18243F" font-family="'OpenSans-Semibold'" font-size="13.1408">)</tspan><tspan x="243.6" y="0" fill="#18243F" font-family="'OpenSans-Semibold'" font-size="13.1408">, </tspan></text>
<text transform="matrix(1 0 0 1 619.8405 270.7291)"><tspan x="0" y="0" fill="#18243F" font-family="'OpenSans-Semibold'" font-size="13.1408">Par</tspan><tspan x="21" y="0" fill="#18243F" font-family="'OpenSans-Semibold'" font-size="13.1408">i</tspan><tspan x="24.5" y="0" fill="#18243F" font-family="'OpenSans-Semibold'" font-size="13.1408">s</tspan></text>
<text transform="matrix(1 0 0 1 619.8405 371.6105)"><tspan x="0" y="0" fill="#18243F" font-family="'OpenSans-Semibold'" font-size="13.1408">Art</tspan><tspan x="19.1" y="0" fill="#18243F" font-family="'OpenSans-Semibold'" font-size="13.1408"> </tspan><tspan x="22.9" y="0" fill="#18243F" font-family="'OpenSans-Semibold'" font-size="13.1408">a</tspan><tspan x="30.3" y="0" fill="#18243F" font-family="'OpenSans-Semibold'" font-size="13.1408">n</tspan><tspan x="38.6" y="0" fill="#18243F" font-family="'OpenSans-Semibold'" font-size="13.1408">d</tspan><tspan x="46.6" y="0" fill="#18243F" font-family="'OpenSans-Semibold'" font-size="13.1408"> </tspan><tspan x="50.4" y="0" fill="#18243F" font-family="'OpenSans-Semibold'" font-size="13.1408">de</tspan><tspan x="65.8" y="0" fill="#18243F" font-family="'OpenSans-Semibold'" font-size="13.1408">si</tspan><tspan x="75.7" y="0" fill="#18243F" font-family="'OpenSans-Semibold'" font-size="13.1408">g</tspan><tspan x="82.8" y="0" fill="#18243F" font-family="'OpenSans-Semibold'" font-size="13.1408">n</tspan><tspan x="91.1" y="0" fill="#18243F" font-family="'OpenSans-Semibold'" font-size="13.1408"> </tspan><tspan x="94.8" y="0" fill="#18243F" font-family="'OpenSans-Semibold'" font-size="13.1408">in</tspan><tspan x="106.6" y="0" fill="#18243F" font-family="'OpenSans-Semibold'" font-size="13.1408">ter</tspan><tspan x="124.6" y="0" fill="#18243F" font-family="'OpenSans-Semibold'" font-size="13.1408">nshi</tspan><tspan x="150.8" y="0" fill="#18243F" font-family="'OpenSans-Semibold'" font-size="13.1408">p</tspan><tspan x="158.9" y="0" fill="#18243F" font-family="'OpenSans-Semibold'" font-size="13.1408"> </tspan><tspan x="162.6" y="0" fill="#18243F" font-family="'OpenSans-Semibold'" font-size="13.1408">at</tspan><tspan x="175.2" y="0" fill="#18243F" font-family="'OpenSans-Semibold'" font-size="13.1408"> </tspan><tspan x="178.9" y="0" fill="#18243F" font-family="'OpenSans-Semibold'" font-size="13.1408">C</tspan><tspan x="187.1" y="0" fill="#18243F" font-family="'OpenSans-Semibold'" font-size="13.1408">ambr</tspan><tspan x="220.6" y="0" fill="#18243F" font-family="'OpenSans-Semibold'" font-size="13.1408">i</tspan><tspan x="224.2" y="0" fill="#18243F" font-family="'OpenSans-Semibold'" font-size="13.1408">dg</tspan><tspan x="239.4" y="0" fill="#18243F" font-family="'OpenSans-Semibold'" font-size="13.1408">e </tspan></text>
<text transform="matrix(1 0 0 1 619.8405 388.2472)"><tspan x="0" y="0" fill="#18243F" font-family="'OpenSans-Semibold'" font-size="13.1408">U</tspan><tspan x="9.6" y="0" fill="#18243F" font-family="'OpenSans-Semibold'" font-size="13.1408">ni</tspan><tspan x="21.4" y="0" fill="#18243F" font-family="'OpenSans-Semibold'" font-size="13.1408">ver</tspan><tspan x="41.3" y="0" fill="#18243F" font-family="'OpenSans-Semibold'" font-size="13.1408">si</tspan><tspan x="51.1" y="0" fill="#18243F" font-family="'OpenSans-Semibold'" font-size="13.1408">t</tspan><tspan x="56.1" y="0" fill="#18243F" font-family="'OpenSans-Semibold'" font-size="13.1408">y</tspan></text>
<text transform="matrix(1 0 0 1 155.9543 347.8995)" fill="#18243F" font-family="'OpenSans'" font-size="10.7516">Developpement of sourcing methods</text>
<text transform="matrix(1 0 0 1 155.9543 363.3488)" fill="#18243F" font-family="'OpenSans'" font-size="10.7516">Project management with </text>
<text transform="matrix(1 0 0 1 287.7365 363.3488)" fill="#18243F" font-family="'OpenSans'" font-size="10.7516">e-learning</text>
<text transform="matrix(1 0 0 1 338.1506 363.3488)" fill="#18243F" font-family="'OpenSans'" font-size="10.7516"> contractors</text>
<text transform="matrix(1 0 0 1 155.9435 378.7999)" fill="#18243F" font-family="'OpenSans'" font-size="10.7516">Benchmark making</text>
<text transform="matrix(1 0 0 1 122.3996 307.8097)" fill="#652576" font-family="'OpenSans'" font-size="13.1408">S</text>
<text transform="matrix(1 0 0 1 129.6134 307.8097)" fill="#652576" font-family="'OpenSans'" font-size="13.1408">ummer </text>
<text transform="matrix(1 0 0 1 122.3996 324.5382)" fill="#652576" font-family="'OpenSans'" font-size="13.1408">201</text>
<text transform="matrix(1 0 0 1 144.9357 324.5382)" fill="#652576" font-family="'OpenSans'" font-size="13.1408">4</text>
<text transform="matrix(1 0 0 1 211.1134 307.2706)"><tspan x="0" y="0" fill="#18243F" font-family="'OpenSans-Semibold'" font-size="13.1408">Human</tspan><tspan x="46.7" y="0" fill="#18243F" font-family="'OpenSans-Semibold'" font-size="13.1408" letter-spacing="10"> </tspan><tspan x="60.9" y="0" fill="#18243F" font-family="'OpenSans-Semibold'" font-size="13.1408">ressources</tspan><tspan x="129.4" y="0" fill="#18243F" font-family="'OpenSans-Semibold'" font-size="13.1408" letter-spacing="10"> </tspan><tspan x="143.5" y="0" fill="#18243F" font-family="'OpenSans-Semibold'" font-size="13.1408">internship,</tspan><tspan x="212.4" y="0" fill="#18243F" font-family="'OpenSans-Semibold'" font-size="13.1408" letter-spacing="10"> </tspan><tspan x="226.5" y="0" fill="#18243F" font-family="'OpenSans-Semibold'" font-size="13.1408">at </tspan></text>
<text transform="matrix(1 0 0 1 211.1134 323.9064)" fill="#18243F" font-family="'OpenSans-Semibold'" font-size="13.1408">Nexity, a real estate group, in Paris</text>
<text transform="matrix(1 0 0 1 211.1134 201.3161)"><tspan x="0" y="0" fill="#18243F" font-family="'OpenSans-Semibold'" font-size="13.1408">Design</tspan><tspan x="42.9" y="0" fill="#18243F" font-family="'OpenSans-Semibold'" font-size="13.1408"> </tspan><tspan x="46" y="0" fill="#18243F" font-family="'OpenSans-Semibold'" font-size="13.1408">internship</tspan><tspan x="111.3" y="0" fill="#18243F" font-family="'OpenSans-Semibold'" font-size="13.1408"> </tspan><tspan x="114.3" y="0" fill="#18243F" font-family="'OpenSans-Semibold'" font-size="13.1408">at</tspan><tspan x="127.1" y="0" fill="#18243F" font-family="'OpenSans-Semibold'" font-size="13.1408"> </tspan><tspan x="130.2" y="0" fill="#18243F" font-family="'OpenSans-Semibold'" font-size="13.1408">the</tspan><tspan x="151.2" y="0" fill="#18243F" font-family="'OpenSans-Semibold'" font-size="13.1408"> </tspan><tspan x="154.3" y="0" fill="#18243F" font-family="'OpenSans-Semibold'" font-size="13.1408">Lab</tspan><tspan x="177.2" y="0" fill="#18243F" font-family="'OpenSans-Semibold'" font-size="13.1408"> </tspan><tspan x="180.3" y="0" fill="#18243F" font-family="'OpenSans-Semibold'" font-size="13.1408">Paris,</tspan><tspan x="215.2" y="0" fill="#18243F" font-family="'OpenSans-Semibold'" font-size="13.1408"> </tspan><tspan x="218.3" y="0" fill="#18243F" font-family="'OpenSans-Semibold'" font-size="13.1408">the </tspan></text>
<text transform="matrix(1 0 0 1 211.1134 217.9528)" fill="#18243F" font-family="'OpenSans-Semibold'" font-size="13.1408">innovation lab of La Poste, in Paris</text>
<text transform="matrix(1 0 0 1 210.8244 68.0036)" fill="#18243F" font-family="'OpenSans-Semibold'" font-size="13.1408">Freelance for start-ups</text>
<text transform="matrix(1 0 0 1 563.1867 296.2179)" fill="#18243F" font-family="'OpenSans'" font-size="10.7516">Help in the organisation of the Fraternity Cup, </text>
<text transform="matrix(1 0 0 1 563.1867 311.6681)" fill="#18243F" font-family="'OpenSans'" font-size="10.7516">a football tournament with underpriviledged </text>
<text transform="matrix(1 0 0 1 563.1867 327.1183)" fill="#18243F" font-family="'OpenSans'" font-size="10.7516">children from all over the world.</text>
<text transform="matrix(1 0 0 1 563.1867 415.9474)" fill="#18243F" font-family="'OpenSans'" font-size="10.7516">Fashion design </text>
<text transform="matrix(1 0 0 1 563.1867 431.4728)" fill="#18243F" font-family="'OpenSans'" font-size="10.7516">Sketch, live model drawing</text>
</svg>
