<?xml version="1.0" encoding="utf-8"?>
<!-- Generator: Adobe Illustrator 17.0.0, SVG Export Plug-In . SVG Version: 6.00 Build 0)  -->
<!DOCTYPE svg PUBLIC "-//W3C//DTD SVG 1.1//EN" "http://www.w3.org/Graphics/SVG/1.1/DTD/svg11.dtd">
<svg version="1.1" id="Calque_1" xmlns="http://www.w3.org/2000/svg" xmlns:xlink="http://www.w3.org/1999/xlink" x="0px" y="0px"
	 width="1280px" height="800px" viewBox="0 0 1280 800" enable-background="new 0 0 1280 800" xml:space="preserve">
<rect y="58.493" fill="#F19699" width="551.981" height="683.015"/>
<text transform="matrix(1 0 0 1 216.5536 320.8466)" fill="#FFFFFF" font-family="'WalkwayBold'" font-size="106.9153">Liv</text>
<text transform="matrix(1 0 0 1 44.0605 423.1728)" fill="#FFFFFF" font-family="'OpenSans-Semibold'" font-size="18">Subject:</text>
<text transform="matrix(1 0 0 1 112.437 423.1728)" fill="#FFFFFF" font-family="'OpenSans'" font-size="18"> Make a wooden ceiling lamp using an industrial </text>
<text transform="matrix(1 0 0 1 44.0605 452.0215)" fill="#FFFFFF" font-family="'OpenSans'" font-size="18">process</text>
<text transform="matrix(1 0 0 1 44.0605 489.5195)" fill="#FFFFFF" font-family="'OpenSans-Semibold'" font-size="18">Target:</text>
<text transform="matrix(1 0 0 1 104.3559 489.5195)" fill="#FFFFFF" font-family="'OpenSans'" font-size="18"> Public libraries </text>
<text transform="matrix(1 0 0 1 44.0605 527.0165)" fill="#FFFFFF" font-family="'OpenSans-Semibold'" font-size="18">Conditions:</text>
<text transform="matrix(1 0 0 1 141.6523 527.0165)" fill="#FFFFFF" font-family="'OpenSans'" font-size="18"> a 6-week project in group of 2.</text>
<g>
	<defs>
		<rect id="SVGID_1_" x="561.567" y="58.906" width="549.133" height="321.693"/>
	</defs>
	<clipPath id="SVGID_2_">
		<use xlink:href="#SVGID_1_"  overflow="visible"/>
	</clipPath>
	<g clip-path="url(#SVGID_2_)">
		<g>
			<defs>
				<rect id="SVGID_3_" x="561.532" y="29.928" width="550.602" height="392.45"/>
			</defs>
			<clipPath id="SVGID_4_">
				<use xlink:href="#SVGID_3_"  overflow="visible"/>
			</clipPath>
			<g clip-path="url(#SVGID_4_)">
				<g>
					<defs>
						<rect id="SVGID_5_" x="559.958" y="29.928" width="553.75" height="394.171"/>
					</defs>
					<clipPath id="SVGID_6_">
						<use xlink:href="#SVGID_5_"  overflow="visible"/>
					</clipPath>
					<g clip-path="url(#SVGID_6_)">
						
							<image overflow="visible" enable-background="new    " width="1613" height="1152" xlink:href="DB3D13D6A34134D7.jpg"  transform="matrix(0.3432 0 0 0.3421 559.9634 29.9282)">
						</image>
					</g>
				</g>
			</g>
			<g clip-path="url(#SVGID_4_)">
				<g>
					<defs>
						<rect id="SVGID_7_" x="561.375" y="650.524" width="297.81" height="220.479"/>
					</defs>
					<clipPath id="SVGID_8_">
						<use xlink:href="#SVGID_7_"  overflow="visible"/>
					</clipPath>
					<g transform="matrix(1 0 0 1 0 -3.051758e-05)" clip-path="url(#SVGID_8_)">
						
							<image overflow="visible" enable-background="new    " width="541" height="404" xlink:href="DB3D13D6A34134D0.jpg"  transform="matrix(0.5505 0 0 0.5459 561.3829 650.5067)">
						</image>
					</g>
				</g>
			</g>
			<g clip-path="url(#SVGID_4_)">
				<g>
					<defs>
						<rect id="SVGID_9_" x="863.907" y="650.211" width="298.282" height="221.731"/>
					</defs>
					<clipPath id="SVGID_10_">
						<use xlink:href="#SVGID_9_"  overflow="visible"/>
					</clipPath>
					<g clip-path="url(#SVGID_10_)">
						
							<image overflow="visible" enable-background="new    " width="544" height="407" xlink:href="DB3D13D6A34134D1.jpg"  transform="matrix(0.5483 0 0 0.5449 863.9225 650.2443)">
						</image>
					</g>
				</g>
			</g>
			<g clip-path="url(#SVGID_4_)">
				<g>
					<defs>
						<rect id="SVGID_11_" x="561.532" y="429.575" width="297.495" height="216.411"/>
					</defs>
					<clipPath id="SVGID_12_">
						<use xlink:href="#SVGID_11_"  overflow="visible"/>
					</clipPath>
					<g clip-path="url(#SVGID_12_)">
						<g>
							<defs>
								<rect id="SVGID_13_" x="561.532" y="429.575" width="298.754" height="219.071"/>
							</defs>
							<clipPath id="SVGID_14_">
								<use xlink:href="#SVGID_13_"  overflow="visible"/>
							</clipPath>
							<g transform="matrix(1 0 0 1 3.051758e-05 0)" clip-path="url(#SVGID_14_)">
								
									<image overflow="visible" enable-background="new    " width="544" height="401" xlink:href="DB3D13D6A34134DE.jpg"  transform="matrix(0.5491 0 0 0.5462 561.4931 429.5282)">
								</image>
							</g>
						</g>
					</g>
					<g clip-path="url(#SVGID_12_)">
						<g>
							<defs>
								<rect id="SVGID_15_" x="1166.596" y="650.211" width="297.023" height="221.887"/>
							</defs>
							<clipPath id="SVGID_16_">
								<use xlink:href="#SVGID_15_"  overflow="visible"/>
							</clipPath>
							<g clip-path="url(#SVGID_16_)">
								<g>
									<defs>
										<rect id="SVGID_17_" x="1166.596" y="650.211" width="299.699" height="221.887"/>
									</defs>
									<clipPath id="SVGID_18_">
										<use xlink:href="#SVGID_17_"  overflow="visible"/>
									</clipPath>
									<g clip-path="url(#SVGID_18_)">
										
											<image overflow="visible" enable-background="new    " width="541" height="403" xlink:href="DB3D13D6A34134D6.jpg"  transform="matrix(0.554 0 0 0.5507 1166.5459 650.2443)">
										</image>
									</g>
								</g>
							</g>
							<g clip-path="url(#SVGID_16_)">
								<g>
									<defs>
										<rect id="SVGID_19_" x="1166.439" y="429.419" width="297.023" height="216.567"/>
									</defs>
									<clipPath id="SVGID_20_">
										<use xlink:href="#SVGID_19_"  overflow="visible"/>
									</clipPath>
									<g clip-path="url(#SVGID_20_)">
										<g>
											<defs>
												<rect id="SVGID_21_" x="1166.439" y="429.419" width="299.699" height="218.914"/>
											</defs>
											<clipPath id="SVGID_22_">
												<use xlink:href="#SVGID_21_"  overflow="visible"/>
											</clipPath>
											<g clip-path="url(#SVGID_22_)">
												
													<image overflow="visible" enable-background="new    " width="541" height="398" xlink:href="DB3D13D6A34134CA.jpg"  transform="matrix(0.5541 0 0 0.5501 1166.4344 429.4152)">
												</image>
											</g>
										</g>
									</g>
									<g clip-path="url(#SVGID_20_)">
										<g>
											<defs>
												<rect id="SVGID_23_" x="863.277" y="429.575" width="299.384" height="216.411"/>
											</defs>
											<clipPath id="SVGID_24_">
												<use xlink:href="#SVGID_23_"  overflow="visible"/>
											</clipPath>
											<g clip-path="url(#SVGID_24_)">
												<g>
													<defs>
														<rect id="SVGID_25_" x="861.388" y="429.575" width="301.115" height="219.071"/>
													</defs>
													<clipPath id="SVGID_26_">
														<use xlink:href="#SVGID_25_"  overflow="visible"/>
													</clipPath>
													<g clip-path="url(#SVGID_26_)">
														
															<image overflow="visible" enable-background="new    " width="539" height="396" xlink:href="DB3D13D6A34134CB.jpg"  transform="matrix(0.5587 0 0 0.5532 861.4462 429.5282)">
														</image>
													</g>
												</g>
											</g>
											<g clip-path="url(#SVGID_24_)">
												<g>
													<defs>
														<rect id="SVGID_27_" x="1111.662" y="33.37" width="235.005" height="132.538"/>
													</defs>
													<clipPath id="SVGID_28_">
														<use xlink:href="#SVGID_27_"  overflow="visible"/>
													</clipPath>
													<g clip-path="url(#SVGID_28_)">
														<g>
															<defs>
																<rect id="SVGID_29_" x="1110.088" y="32.118" width="237.996" height="135.511"/>
															</defs>
															<clipPath id="SVGID_30_">
																<use xlink:href="#SVGID_29_"  overflow="visible"/>
															</clipPath>
															<g clip-path="url(#SVGID_30_)">
																
																	<image overflow="visible" enable-background="new    " width="302" height="175" xlink:href="DB3D13D6A34134D5.png"  transform="matrix(0.7881 0 0 0.7745 1110.115 32.1221)">
																</image>
															</g>
														</g>
													</g>
													<g clip-path="url(#SVGID_28_)">
														<g>
															<defs>
																<rect id="SVGID_31_" x="1250.808" y="140.089" width="238.94" height="172.283"/>
															</defs>
															<clipPath id="SVGID_32_">
																<use xlink:href="#SVGID_31_"  overflow="visible"/>
															</clipPath>
															<g clip-path="url(#SVGID_32_)">
																
																	<image overflow="visible" enable-background="new    " width="383" height="278" xlink:href="DB3D13D6A34134D6.png"  transform="matrix(0.6238 0 0 0.6195 1250.7551 140.0583)">
																</image>
															</g>
														</g>
													</g>
													<g clip-path="url(#SVGID_28_)">
														<g>
															<defs>
																<rect id="SVGID_33_" x="1139.05" y="245.869" width="129.387" height="174.944"/>
															</defs>
															<clipPath id="SVGID_34_">
																<use xlink:href="#SVGID_33_"  overflow="visible"/>
															</clipPath>
															<g clip-path="url(#SVGID_34_)">
																<g>
																	<defs>
																		<rect id="SVGID_35_" x="1137.634" y="245.869" width="132.535" height="174.944"/>
																	</defs>
																	<clipPath id="SVGID_36_">
																		<use xlink:href="#SVGID_35_"  overflow="visible"/>
																	</clipPath>
																	<g clip-path="url(#SVGID_36_)">
																		
																			<image overflow="visible" enable-background="new    " width="209" height="275" xlink:href="AFD3DE05986CA2F2.png"  transform="matrix(0.6342 0 0 0.6361 1137.6011 245.9222)">
																		</image>
																	</g>
																</g>
															</g>
														</g>
													</g>
												</g>
											</g>
										</g>
									</g>
								</g>
							</g>
						</g>
					</g>
				</g>
			</g>
		</g>
	</g>
</g>
<image overflow="visible" width="302" height="175" xlink:href="index3.png"  transform="matrix(0.5536 0.0283 -0.0331 0.6484 1114.1721 271.4014)">
</image>
<image overflow="visible" width="383" height="278" xlink:href="index2.png"  transform="matrix(0.4331 0 0 0.4331 1106.225 168.1005)">
</image>
<image overflow="visible" width="209" height="275" xlink:href="index.png"  transform="matrix(0.3861 0 0 0.3861 1149.3527 62.7032)">
</image>
<image overflow="visible" width="541" height="403" xlink:href="book 3.jpg"  transform="matrix(0.4299 0 0 0.4299 799.2481 565.7115)">
</image>
<image overflow="visible" width="544" height="407" xlink:href="book 2.jpg"  transform="matrix(0.4257 0 0 0.4257 560.4319 566.1771)">
</image>
<image overflow="visible" width="541" height="404" xlink:href="book.jpg"  transform="matrix(0.4257 0 0 0.4257 1039.9838 566.1334)">
</image>
<image overflow="visible" width="541" height="398" xlink:href="liv close.jpg"  transform="matrix(0.4267 0 0 0.4267 1039.4475 388.9742)">
</image>
<image overflow="visible" width="539" height="396" xlink:href="livhalf.jpg"  transform="matrix(0.4262 0 0 0.4262 800.7018 390.0671)">
</image>
<image overflow="visible" width="544" height="401" xlink:href="../liv open.jpg"  transform="matrix(0.4237 0 0 0.4237 561.4868 387.7354)">
</image>
</svg>
