<?xml version="1.0" encoding="utf-8"?>
<!-- Generator: Adobe Illustrator 17.0.0, SVG Export Plug-In . SVG Version: 6.00 Build 0)  -->
<!DOCTYPE svg PUBLIC "-//W3C//DTD SVG 1.1//EN" "http://www.w3.org/Graphics/SVG/1.1/DTD/svg11.dtd">
<svg version="1.1" id="Calque_1" xmlns="http://www.w3.org/2000/svg" xmlns:xlink="http://www.w3.org/1999/xlink" x="0px" y="0px"
	 width="1280px" height="800px" viewBox="0 0 1280 800" enable-background="new 0 0 1280 800" xml:space="preserve">
<image overflow="visible" enable-background="new    " width="2143" height="938" xlink:href="6DF927069EF70841.jpeg"  transform="matrix(0.2342 0 0 0.2342 550.6183 66.9281)">
</image>
<rect x="0.622" y="57.995" fill="#36ACA9" width="551.981" height="683.015"/>
<text transform="matrix(1 0 0 1 35.2304 429.2448)" fill="#FFFFFF" font-family="'OpenSans-Semibold'" font-size="17.2181">Subject: </text>
<text transform="matrix(1 0 0 1 105.5956 429.2448)" fill="#FFFFFF" font-family="'OpenSans'" font-size="17.2181">Conceive</text>
<text transform="matrix(1 0 0 1 177.9497 429.2448)" fill="#FFFFFF" font-family="'OpenSans'" font-size="17.2181"> </text>
<text transform="matrix(1 0 0 1 181.5546 429.2448)" fill="#FFFFFF" font-family="'OpenSans'" font-size="17.2181">a</text>
<text transform="matrix(1 0 0 1 191.1279 429.2448)" fill="#FFFFFF" font-family="'OpenSans'" font-size="17.2181"> </text>
<text transform="matrix(1 0 0 1 194.8574 429.2448)" fill="#FFFFFF" font-family="'OpenSans'" font-size="17.2181">website</text>
<text transform="matrix(1 0 0 1 256.7686 429.2448)" fill="#FFFFFF" font-family="'OpenSans'" font-size="17.2181"> </text>
<text transform="matrix(1 0 0 1 260.374 429.2448)" fill="#FFFFFF" font-family="'OpenSans'" font-size="17.2181">to</text>
<text transform="matrix(1 0 0 1 276.9086 429.2448)" fill="#FFFFFF" font-family="'OpenSans'" font-size="17.2181"> </text>
<text transform="matrix(1 0 0 1 280.6382 429.2448)" fill="#FFFFFF" font-family="'OpenSans'" font-size="17.2181">ease</text>
<text transform="matrix(1 0 0 1 317.6855 429.2448)" fill="#FFFFFF" font-family="'OpenSans'" font-size="17.2181"> </text>
<text transform="matrix(1 0 0 1 321.4151 429.2448)" fill="#FFFFFF" font-family="'OpenSans'" font-size="17.2181">the</text>
<text transform="matrix(1 0 0 1 347.6465 429.2448)" fill="#FFFFFF" font-family="'OpenSans'" font-size="17.2181"> </text>
<text transform="matrix(1 0 0 1 351.3764 429.2448)" fill="#FFFFFF" font-family="'OpenSans'" font-size="17.2181">access</text>
<text transform="matrix(1 0 0 1 403.4662 429.2448)" fill="#FFFFFF" font-family="'OpenSans'" font-size="17.2181"> </text>
<text transform="matrix(1 0 0 1 407.0718 429.2448)" fill="#FFFFFF" font-family="'OpenSans'" font-size="17.2181">to</text>
<text transform="matrix(1 0 0 1 423.6064 429.2448)" fill="#FFFFFF" font-family="'OpenSans'" font-size="17.2181"> </text>
<text transform="matrix(1 0 0 1 427.2119 429.2448)" fill="#FFFFFF" font-family="'OpenSans'" font-size="17.2181">continuous </text>
<text transform="matrix(1 0 0 1 35.2304 457.0524)" fill="#FFFFFF" font-family="'OpenSans'" font-size="17.2181">formation and subsidies   </text>
<text transform="matrix(1 0 0 1 35.2304 496.7917)" fill="#FFFFFF" font-family="'OpenSans-Semibold'" font-size="17.2181">Target: </text>
<text transform="matrix(1 0 0 1 97.8876 496.7917)" fill="#FFFFFF" font-family="'OpenSans'" font-size="17.2181">Health Workers</text>
<text transform="matrix(1 0 0 1 35.2304 536.5318)" fill="#FFFFFF" font-family="'OpenSans-Semibold'" font-size="17.2181">Conditions: </text>
<text transform="matrix(1 0 0 1 133.6919 536.5318)" fill="#FFFFFF" font-family="'OpenSans'" font-size="17.2181">a 3-week workshop in group of 6 people from </text>
<text transform="matrix(1 0 0 1 35.2304 564.3376)" fill="#FFFFFF" font-family="'OpenSans'" font-size="17.2181">HEC business school and École 42.</text>
<text transform="matrix(1 0 0 1 65.6279 301.8908)" fill="#FFFFFF" font-family="'OpenSans-Light'" font-size="100.6599">Rem’aide</text>
<g>
	<g>
		<defs>
			<rect id="SVGID_3_" x="563.197" y="306.652" width="105.796" height="409.511"/>
		</defs>
		<clipPath id="SVGID_4_">
			<use xlink:href="#SVGID_3_"  overflow="visible"/>
		</clipPath>
		<g clip-path="url(#SVGID_4_)">
			<g>
				<defs>
					<rect id="SVGID_5_" x="563.197" y="306.652" width="105.796" height="409.511"/>
				</defs>
				<clipPath id="SVGID_6_">
					<use xlink:href="#SVGID_5_"  overflow="visible"/>
				</clipPath>
				<g transform="matrix(1 0 0 1 3.051758e-05 0)" clip-path="url(#SVGID_6_)">
					
						<image overflow="visible" enable-background="new    " width="999" height="258" xlink:href="6DF927069EF70843.png"  transform="matrix(2.509812e-17 -0.4099 0.4099 2.509812e-17 563.1497 716.1674)">
					</image>
				</g>
			</g>
		</g>
		<g clip-path="url(#SVGID_4_)">
			<g>
				<defs>
					<rect id="SVGID_7_" x="673.469" y="285.642" width="380.544" height="231.981"/>
				</defs>
				<clipPath id="SVGID_8_">
					<use xlink:href="#SVGID_7_"  overflow="visible"/>
				</clipPath>
				<g clip-path="url(#SVGID_8_)">
					<g>
						<defs>
							<rect id="SVGID_9_" x="673.469" y="285.642" width="381.166" height="234.343"/>
						</defs>
						<clipPath id="SVGID_10_">
							<use xlink:href="#SVGID_9_"  overflow="visible"/>
						</clipPath>
						<g clip-path="url(#SVGID_10_)">
							
								<image overflow="visible" enable-background="new    " width="321" height="198" xlink:href="6DF927069EF70841.png"  transform="matrix(1.1874 0 0 1.1835 673.5303 285.6623)">
							</image>
						</g>
					</g>
				</g>
				<g clip-path="url(#SVGID_8_)">
					<g>
						<defs>
							<rect id="SVGID_11_" x="720.214" y="510.786" width="288.298" height="233.349"/>
						</defs>
						<clipPath id="SVGID_12_">
							<use xlink:href="#SVGID_11_"  overflow="visible"/>
						</clipPath>
						<g clip-path="url(#SVGID_12_)">
							<g>
								<defs>
									<rect id="SVGID_13_" x="720.214" y="509.169" width="288.298" height="234.841"/>
								</defs>
								<clipPath id="SVGID_14_">
									<use xlink:href="#SVGID_13_"  overflow="visible"/>
								</clipPath>
								<g transform="matrix(1 0 0 1 0 0)" clip-path="url(#SVGID_14_)">
									
										<image overflow="visible" enable-background="new    " width="324" height="264" xlink:href="6DF927069EF70847.png"  transform="matrix(0.89 0 0 0.8897 720.2742 509.1909)">
									</image>
								</g>
							</g>
						</g>
						<g clip-path="url(#SVGID_12_)">
							<g>
								<defs>
									<rect id="SVGID_15_" x="561.954" y="285.642" width="492.183" height="471.298"/>
								</defs>
								<clipPath id="SVGID_16_">
									<use xlink:href="#SVGID_15_"  overflow="visible"/>
								</clipPath>
								
									<rect x="673.345" y="286.015" clip-path="url(#SVGID_16_)" fill="none" stroke="#1D1D1B" stroke-width="0.525" width="380.42" height="459.363"/>
							</g>
						</g>
						<g clip-path="url(#SVGID_12_)">
							<g>
								<defs>
									<rect id="SVGID_17_" x="1055.381" y="508.175" width="228.376" height="171.189"/>
								</defs>
								<clipPath id="SVGID_18_">
									<use xlink:href="#SVGID_17_"  overflow="visible"/>
								</clipPath>
								<g clip-path="url(#SVGID_18_)">
									<g>
										<defs>
											<rect id="SVGID_19_" x="1055.381" y="507.553" width="229.246" height="173.054"/>
										</defs>
										<clipPath id="SVGID_20_">
											<use xlink:href="#SVGID_19_"  overflow="visible"/>
										</clipPath>
										<g clip-path="url(#SVGID_20_)">
											
												<image overflow="visible" enable-background="new    " width="646" height="486" xlink:href="6DF927069EF70842.png"  transform="matrix(0.3548 0 0 0.356 1055.3715 507.5403)">
											</image>
										</g>
									</g>
								</g>
								<g clip-path="url(#SVGID_18_)">
									<g>
										<defs>
											<rect id="SVGID_21_" x="1123.26" y="678.493" width="160.87" height="55.198"/>
										</defs>
										<clipPath id="SVGID_22_">
											<use xlink:href="#SVGID_21_"  overflow="visible"/>
										</clipPath>
										<g clip-path="url(#SVGID_22_)">
											<g>
												<defs>
													<rect id="SVGID_23_" x="1121.892" y="677.25" width="162.984" height="57.685"/>
												</defs>
												<clipPath id="SVGID_24_">
													<use xlink:href="#SVGID_23_"  overflow="visible"/>
												</clipPath>
												<g clip-path="url(#SVGID_24_)">
													
														<image overflow="visible" enable-background="new    " width="458" height="163" xlink:href="6DF927069EF7084D.png"  transform="matrix(0.3558 0 0 0.3538 1121.9058 677.2686)">
													</image>
												</g>
											</g>
										</g>
										<g clip-path="url(#SVGID_22_)">
											<g>
												<defs>
													<rect id="SVGID_25_" x="1055.381" y="285.642" width="229.619" height="220.171"/>
												</defs>
												<clipPath id="SVGID_26_">
													<use xlink:href="#SVGID_25_"  overflow="visible"/>
												</clipPath>
												<g clip-path="url(#SVGID_26_)">
													
														<image overflow="visible" enable-background="new    " width="323" height="309" xlink:href="6DF927069EF7084E.png"  transform="matrix(0.7109 0 0 0.7124 1055.3843 285.6622)">
													</image>
												</g>
											</g>
										</g>
										<g clip-path="url(#SVGID_22_)">
											<g>
												<defs>
													<rect id="SVGID_27_" x="1054.759" y="285.642" width="465.579" height="222.782"/>
												</defs>
												<clipPath id="SVGID_28_">
													<use xlink:href="#SVGID_27_"  overflow="visible"/>
												</clipPath>
												
													<rect x="1055.008" y="285.89" clip-path="url(#SVGID_28_)" fill="none" stroke="#1D1D1B" stroke-width="0.5" width="230.614" height="222.284"/>
											</g>
										</g>
										
											<rect x="1055.008" y="508.423" clip-path="url(#SVGID_22_)" fill="none" stroke="#1D1D1B" stroke-width="0.5" width="229.246" height="236.954"/>
										<g clip-path="url(#SVGID_22_)">
											<g>
												<defs>
													<rect id="SVGID_29_" x="1054.262" y="62.487" width="229.992" height="223.155"/>
												</defs>
												<clipPath id="SVGID_30_">
													<use xlink:href="#SVGID_29_"  overflow="visible"/>
												</clipPath>
												<g clip-path="url(#SVGID_30_)">
													<g>
														<rect id="SVGID_39_" x="1038.349" y="62.487" fill="#FFFFFF" width="251.251" height="223.155"/>
													</g>
													<g>
														<defs>
															<rect id="SVGID_31_" x="1038.349" y="62.487" width="251.251" height="223.155"/>
														</defs>
														<clipPath id="SVGID_32_">
															<use xlink:href="#SVGID_31_"  overflow="visible"/>
														</clipPath>
														<g clip-path="url(#SVGID_32_)">
															<g>
																<rect id="SVGID_41_" x="1036.484" y="60.747" fill="#FFFFFF" width="253.116" height="227.009"/>
															</g>
															<g>
																<defs>
																	<rect id="SVGID_33_" x="1036.484" y="60.747" width="253.116" height="227.009"/>
																</defs>
																<clipPath id="SVGID_34_">
																	<use xlink:href="#SVGID_33_"  overflow="visible"/>
																</clipPath>
																<g clip-path="url(#SVGID_34_)">
																	
																		<image overflow="visible" enable-background="new    " width="591" height="659" xlink:href="6DF927069EF7084F.jpg"  transform="matrix(-7.054423e-17 0.384 -0.384 -7.054423e-17 1289.552 60.687)">
																	</image>
																</g>
																<g clip-path="url(#SVGID_34_)">
																	
																		<rect id="SVGID_1_" x="1036.484" y="60.747" fill="none" stroke="#000000" stroke-miterlimit="10" width="253.116" height="227.009"/>
																</g>
															</g>
															<g>
																
																	<rect id="SVGID_2_" x="1038.349" y="62.487" fill="none" stroke="#000000" stroke-miterlimit="10" width="251.251" height="223.155"/>
															</g>
														</g>
													</g>
												</g>
												<line clip-path="url(#SVGID_30_)" fill="none" x1="5.622" y1="744.01" x2="557.603" y2="60.995"/>
												<line clip-path="url(#SVGID_30_)" fill="none" x1="5.622" y1="60.995" x2="557.603" y2="744.01"/>
											</g>
										</g>
									</g>
								</g>
							</g>
						</g>
					</g>
				</g>
			</g>
		</g>
	</g>
</g>
<image overflow="visible" width="321" height="198" xlink:href="2remaide.png"  transform="matrix(1.1085 0 0 1.1085 681.4832 533.8562)">
</image>
<image overflow="visible" width="323" height="309" xlink:href="3sit.png"  transform="matrix(0.644 0 0 0.644 1053.5587 114.7436)">
</image>
<image overflow="visible" width="324" height="264" xlink:href="5index.png"  transform="matrix(0.6429 0 0 0.6429 1051.2283 544.1147)">
</image>
<image overflow="visible" width="646" height="486" xlink:href="6index.png"  transform="matrix(0.322 0 0 0.322 1053.9844 350.5347)">
</image>
<g>
	<defs>
		<rect id="SVGID_35_" x="680.006" y="283.319" width="357.377" height="236.866"/>
	</defs>
	<clipPath id="SVGID_36_">
		<use xlink:href="#SVGID_35_"  overflow="visible"/>
	</clipPath>
	<g transform="matrix(1 0 0 1 0 -1.525879e-05)" clip-path="url(#SVGID_36_)">
		
			<image overflow="visible" width="591" height="659" xlink:href="1group.jpg"  transform="matrix(2.438909e-11 0.5432 -0.5432 2.438909e-11 1039.1732 237.9463)">
		</image>
	</g>
</g>
</svg>
